<svg width="208" height="96" viewBox="0 0 208 96" fill="none" xmlns="http://www.w3.org/2000/svg">
<path d="M6.39844 27.9311C6.39844 23.1847 10.218 19.337 14.9297 19.337H28.2598V27.9311H6.39844Z" fill="#003F7D"/>
<path d="M31.9922 27.9311C36.7038 27.9311 40.5234 24.0834 40.5234 19.337V6.44574H31.9922V27.9311Z" fill="#002040"/>
<path d="M14.9297 15.0399H40.5234V6.44574H23.4609C18.7493 6.44574 14.9297 10.2935 14.9297 15.0399Z" fill="#002040"/>
<path d="M14.9297 58.0107C10.218 58.0107 6.39844 54.1629 6.39844 49.4165V27.9311C6.39844 23.1847 10.218 19.337 14.9297 19.337V58.0107Z" fill="#003F7D"/>
<path d="M6.39844 49.4165H40.5234C40.5234 54.1629 36.7038 58.0107 31.9922 58.0107H14.9297C10.218 58.0107 6.39844 54.1629 6.39844 49.4165Z" fill="#003F7D"/>
<path d="M19.7285 42.9709C19.7285 38.2245 23.5481 34.3768 28.2598 34.3768H36.791C36.791 39.1231 32.9714 42.9709 28.2598 42.9709H19.7285Z" fill="#EFB101"/>
<path d="M68.2196 31.2944C68.0743 29.8173 67.4502 28.6697 66.3475 27.8519C65.2446 27.0338 63.7482 26.6249 61.8577 26.6249C60.5732 26.6249 59.4884 26.808 58.6038 27.1743C57.7192 27.5283 57.0407 28.0227 56.5681 28.6576C56.1076 29.2922 55.8773 30.0125 55.8773 30.8182C55.853 31.4897 55.9925 32.0757 56.2953 32.576C56.6104 33.0766 57.0407 33.5101 57.5859 33.8761C58.1311 34.2304 58.7614 34.5417 59.4764 34.8102C60.1914 35.0664 60.9547 35.2861 61.7668 35.4693L65.1113 36.275C66.7352 36.6413 68.2257 37.1296 69.583 37.74C70.9403 38.3502 72.1157 39.1011 73.1093 39.9922C74.1032 40.8833 74.8726 41.9332 75.4178 43.1417C75.9753 44.3503 76.26 45.7358 76.2723 47.2986C76.26 49.5935 75.6786 51.5833 74.5271 53.2681C73.3882 54.9404 71.7401 56.2406 69.583 57.1685C67.4382 58.084 64.8508 58.5416 61.8212 58.5416C58.816 58.5416 56.1983 58.0778 53.9687 57.1499C51.7511 56.2223 50.0182 54.8488 48.77 53.0301C47.5337 51.1987 46.8856 48.9344 46.8248 46.2364H54.4414C54.5261 47.4939 54.8837 48.5437 55.5136 49.3859C56.1559 50.2161 57.0103 50.8448 58.0767 51.2721C59.1552 51.6873 60.3733 51.8946 61.7303 51.8946C63.0633 51.8946 64.2206 51.6993 65.2022 51.3086C66.1958 50.9181 66.9655 50.3748 67.5107 49.6789C68.0562 48.9831 68.3286 48.1835 68.3286 47.2801C68.3286 46.4378 68.0804 45.7299 67.5835 45.156C67.0988 44.5823 66.3838 44.0941 65.4387 43.6912C64.5056 43.2884 63.3603 42.922 62.003 42.5925L57.9496 41.5671C54.8109 40.7979 52.3326 39.5956 50.5149 37.9597C48.6972 36.3239 47.7945 34.1203 47.8065 31.3492C47.7945 29.0787 48.3943 27.0948 49.606 25.3981C50.83 23.7012 52.5085 22.3767 54.6413 21.4245C56.7741 20.4723 59.1975 19.9962 61.9121 19.9962C64.6751 19.9962 67.0866 20.4723 69.1468 21.4245C71.2189 22.3767 72.8307 23.7012 73.9819 25.3981C75.1331 27.0948 75.7268 29.0605 75.7634 31.2944H68.2196ZM89.6386 58.5416C87.8572 58.5416 86.2699 58.2304 84.8761 57.6078C83.4825 56.9729 82.3799 56.0391 81.5678 54.8061C80.768 53.5611 80.3681 52.0106 80.3681 50.1551C80.3681 48.5926 80.6528 47.2801 81.2226 46.2182C81.792 45.156 82.5676 44.3017 83.5492 43.6544C84.5308 43.0074 85.6458 42.5192 86.894 42.1896C88.1542 41.8601 89.4749 41.6281 90.8565 41.4938C92.4804 41.323 93.7891 41.1643 94.7827 41.0176C95.7766 40.8589 96.4975 40.6271 96.9459 40.3218C97.3943 40.0167 97.6186 39.5649 97.6186 38.9668V38.857C97.6186 37.6973 97.2549 36.8 96.5279 36.1651C95.8129 35.5302 94.795 35.2131 93.474 35.2131C92.0804 35.2131 90.9716 35.5243 90.1476 36.1469C89.3235 36.7573 88.7783 37.5262 88.5117 38.4541L81.3497 37.8681C81.7134 36.159 82.4284 34.6818 83.4948 33.4368C84.5612 32.1793 85.9366 31.2149 87.621 30.5435C89.3176 29.86 91.2806 29.5181 93.5105 29.5181C95.0616 29.5181 96.546 29.7013 97.9638 30.0676C99.3939 30.4336 100.66 31.0014 101.763 31.7703C102.878 32.5395 103.757 33.5283 104.399 34.7369C105.041 35.9331 105.362 37.3675 105.362 39.0402V58.0107H98.0185V54.1103H97.8004C97.352 54.9893 96.7521 55.7644 96.0008 56.4358C95.2493 57.0951 94.3466 57.614 93.2924 57.9924C92.238 58.3585 91.0202 58.5416 89.6386 58.5416ZM91.8562 53.1582C92.9954 53.1582 94.0013 52.9323 94.8736 52.4806C95.7462 52.0168 96.4308 51.3943 96.9278 50.613C97.4247 49.8315 97.6729 48.9465 97.6729 47.9577V44.9731C97.4306 45.1315 97.0974 45.2782 96.6732 45.4125C96.2613 45.5344 95.7947 45.6504 95.2735 45.7603C94.7526 45.858 94.2314 45.9496 93.7104 46.035C93.1892 46.1083 92.7166 46.1755 92.2927 46.2364C91.3838 46.3707 90.5899 46.5845 89.9114 46.8772C89.2326 47.1702 88.7055 47.5672 88.3299 48.0675C87.9543 48.5558 87.7663 49.1662 87.7663 49.8986C87.7663 50.9608 88.1481 51.7727 88.9116 52.3342C89.6872 52.8835 90.6688 53.1582 91.8562 53.1582ZM118.642 49.9171L118.66 40.56H119.787L128.73 29.8844H137.619L125.604 44.0207H123.768L118.642 49.9171ZM111.626 58.0107V20.5089H119.369V58.0107H111.626ZM129.076 58.0107L120.86 45.7603L126.022 40.2487L138.147 58.0107H129.076ZM141.674 58.0107V29.8844H149.418V58.0107H141.674ZM145.564 26.2587C144.413 26.2587 143.426 25.8741 142.601 25.1051C141.789 24.3238 141.384 23.3899 141.384 22.3034C141.384 21.2291 141.789 20.3075 142.601 19.5384C143.426 18.7571 144.413 18.3665 145.564 18.3665C146.716 18.3665 147.697 18.7571 148.509 19.5384C149.333 20.3075 149.745 21.2291 149.745 22.3034C149.745 23.3899 149.333 24.3238 148.509 25.1051C147.697 25.8741 146.716 26.2587 145.564 26.2587ZM155.877 68.5581V29.8844H163.511V34.6088H163.857C164.196 33.8517 164.687 33.0828 165.329 32.3015C165.983 31.5079 166.832 30.8488 167.874 30.3238C168.928 29.7867 170.237 29.5181 171.8 29.5181C173.836 29.5181 175.714 30.0552 177.435 31.1295C179.156 32.1917 180.531 33.7969 181.562 35.9455C182.591 38.0816 183.106 40.7614 183.106 43.9842C183.106 47.1216 182.604 49.7705 181.598 51.9314C180.604 54.0799 179.247 55.7096 177.526 56.8204C175.817 57.9191 173.903 58.4686 171.782 58.4686C170.279 58.4686 169.001 58.2183 167.947 57.7177C166.905 57.2171 166.05 56.5886 165.384 55.8315C164.717 55.0626 164.208 54.2873 163.857 53.506H163.62V68.5581H155.877ZM163.457 43.9474C163.457 45.6201 163.687 47.0786 164.148 48.324C164.608 49.5691 165.275 50.5397 166.147 51.2355C167.019 51.919 168.08 52.2609 169.328 52.2609C170.588 52.2609 171.655 51.9129 172.527 51.2173C173.4 50.5091 174.06 49.5325 174.509 48.2872C174.969 47.03 175.199 45.5833 175.199 43.9474C175.199 42.3239 174.975 40.8957 174.527 39.6627C174.079 38.4297 173.418 37.4653 172.546 36.7694C171.673 36.0736 170.6 35.7258 169.328 35.7258C168.068 35.7258 167.001 36.0615 166.129 36.7329C165.268 37.4043 164.608 38.3564 164.148 39.5894C163.687 40.8224 163.457 42.2751 163.457 43.9474Z" fill="#003F7D"/>
<path d="M179.757 79.4341V75.2341L180.666 75.0541V76.5661C180.927 76.3541 181.249 76.2481 181.634 76.2481C181.904 76.2481 182.14 76.3021 182.344 76.4101C182.551 76.5141 182.713 76.6601 182.828 76.8481C182.943 77.0321 183 77.2481 183 77.4961V79.4341H182.092V77.6161C182.092 77.4121 182.027 77.2521 181.899 77.1361C181.771 77.0161 181.596 76.9561 181.375 76.9561C181.221 76.9561 181.084 76.9841 180.964 77.0401C180.845 77.0921 180.745 77.1681 180.666 77.2681V79.4341H179.757Z" fill="black"/>
<path d="M177.179 79.4882C176.932 79.4882 176.713 79.4482 176.523 79.3682C176.333 79.2842 176.185 79.1702 176.079 79.0262C175.973 78.8822 175.919 78.7162 175.919 78.5282C175.919 78.2282 176.043 77.9962 176.291 77.8322C176.543 77.6642 176.888 77.5802 177.325 77.5802C177.626 77.5802 177.909 77.6222 178.174 77.7062V77.4782C178.174 77.2982 178.112 77.1622 177.989 77.0702C177.865 76.9782 177.683 76.9322 177.445 76.9322C177.299 76.9322 177.142 76.9542 176.974 76.9982C176.806 77.0382 176.611 77.1022 176.39 77.1902L176.059 76.5842C176.333 76.4722 176.594 76.3882 176.841 76.3322C177.093 76.2762 177.345 76.2482 177.597 76.2482C178.061 76.2482 178.422 76.3502 178.678 76.5542C178.939 76.7542 179.069 77.0382 179.069 77.4062V79.4342H178.174V79.2122C178.033 79.3082 177.88 79.3782 177.717 79.4222C177.553 79.4662 177.374 79.4882 177.179 79.4882ZM176.782 78.5102C176.782 78.6302 176.839 78.7262 176.954 78.7982C177.069 78.8662 177.221 78.9002 177.412 78.9002C177.562 78.9002 177.701 78.8842 177.829 78.8522C177.958 78.8162 178.073 78.7642 178.174 78.6962V78.2402C178.064 78.2002 177.949 78.1702 177.829 78.1502C177.71 78.1302 177.582 78.1202 177.445 78.1202C177.237 78.1202 177.073 78.1562 176.954 78.2282C176.839 78.2962 176.782 78.3902 176.782 78.5102Z" fill="black"/>
<path d="M173.469 79.4341V76.3081H174.377V76.6561C174.488 76.5201 174.62 76.4161 174.775 76.3441C174.93 76.2721 175.105 76.2361 175.299 76.2361C175.467 76.2401 175.593 76.2641 175.677 76.3081V77.0281C175.611 77.0001 175.538 76.9801 175.458 76.9681C175.379 76.9521 175.297 76.9441 175.213 76.9441C175.036 76.9441 174.875 76.9841 174.729 77.0641C174.583 77.1441 174.466 77.2581 174.377 77.4061V79.4341H173.469Z" fill="black"/>
<path d="M171.274 79.4942C170.929 79.4942 170.615 79.4222 170.332 79.2782C170.054 79.1342 169.833 78.9402 169.669 78.6962C169.506 78.4522 169.424 78.1782 169.424 77.8742C169.424 77.5702 169.501 77.2962 169.656 77.0522C169.815 76.8082 170.03 76.6142 170.299 76.4702C170.569 76.3262 170.87 76.2542 171.201 76.2542C171.533 76.2542 171.827 76.3282 172.083 76.4762C172.34 76.6242 172.541 76.8242 172.687 77.0762C172.837 77.3282 172.912 77.6142 172.912 77.9342V78.1502H170.352C170.392 78.2742 170.456 78.3862 170.545 78.4862C170.637 78.5862 170.75 78.6642 170.883 78.7202C171.02 78.7762 171.166 78.8042 171.32 78.8042C171.475 78.8042 171.617 78.7822 171.745 78.7382C171.878 78.6942 171.99 78.6322 172.083 78.5522L172.68 79.0442C172.468 79.2002 172.249 79.3142 172.023 79.3862C171.802 79.4582 171.553 79.4942 171.274 79.4942ZM170.339 77.5622H172.017C171.986 77.4382 171.928 77.3302 171.844 77.2382C171.765 77.1422 171.668 77.0682 171.553 77.0162C171.442 76.9602 171.318 76.9322 171.181 76.9322C171.04 76.9322 170.912 76.9582 170.797 77.0102C170.682 77.0622 170.584 77.1362 170.505 77.2322C170.43 77.3242 170.374 77.4342 170.339 77.5622Z" fill="black"/>
<path d="M167.005 79.4882C166.758 79.4882 166.539 79.4482 166.349 79.3682C166.159 79.2842 166.011 79.1702 165.905 79.0262C165.798 78.8822 165.745 78.7162 165.745 78.5282C165.745 78.2282 165.869 77.9962 166.117 77.8322C166.369 77.6642 166.714 77.5802 167.151 77.5802C167.452 77.5802 167.735 77.6222 168 77.7062V77.4782C168 77.2982 167.938 77.1622 167.814 77.0702C167.691 76.9782 167.509 76.9322 167.271 76.9322C167.125 76.9322 166.968 76.9542 166.8 76.9982C166.632 77.0382 166.437 77.1022 166.216 77.1902L165.885 76.5842C166.159 76.4722 166.42 76.3882 166.667 76.3322C166.919 76.2762 167.171 76.2482 167.423 76.2482C167.887 76.2482 168.248 76.3502 168.504 76.5542C168.765 76.7542 168.895 77.0382 168.895 77.4062V79.4342H168V79.2122C167.859 79.3082 167.706 79.3782 167.543 79.4222C167.379 79.4662 167.2 79.4882 167.005 79.4882ZM166.607 78.5102C166.607 78.6302 166.665 78.7262 166.78 78.7982C166.895 78.8662 167.047 78.9002 167.237 78.9002C167.388 78.9002 167.527 78.8842 167.655 78.8522C167.783 78.8162 167.898 78.7642 168 78.6962V78.2402C167.89 78.2002 167.775 78.1702 167.655 78.1502C167.536 78.1302 167.408 78.1202 167.271 78.1202C167.063 78.1202 166.899 78.1562 166.78 78.2282C166.665 78.2962 166.607 78.3902 166.607 78.5102Z" fill="black"/>
<path d="M162.095 78.6601H162.904C163.111 78.6601 163.304 78.6281 163.481 78.5641C163.662 78.4961 163.819 78.4021 163.951 78.2821C164.088 78.1621 164.192 78.0221 164.263 77.8621C164.338 77.7021 164.376 77.5281 164.376 77.3401C164.376 77.1521 164.338 76.9781 164.263 76.8181C164.188 76.6541 164.084 76.5121 163.951 76.3921C163.819 76.2721 163.662 76.1781 163.481 76.1101C163.304 76.0421 163.111 76.0081 162.904 76.0081H162.095V78.6601ZM161.133 79.4341V75.2341H162.917C163.266 75.2341 163.589 75.2881 163.885 75.3961C164.181 75.5001 164.44 75.6481 164.661 75.8401C164.882 76.0321 165.054 76.2561 165.178 76.5121C165.306 76.7681 165.371 77.0441 165.371 77.3401C165.371 77.6401 165.309 77.9161 165.185 78.1681C165.061 78.4201 164.886 78.6421 164.661 78.8341C164.44 79.0221 164.181 79.1701 163.885 79.2781C163.589 79.3821 163.266 79.4341 162.917 79.4341H161.133Z" fill="black"/>
<path d="M155.808 79.4341V75.2341L156.717 75.0541V76.5661C156.977 76.3541 157.3 76.2481 157.685 76.2481C157.955 76.2481 158.191 76.3021 158.394 76.4101C158.602 76.5141 158.764 76.6601 158.879 76.8481C158.994 77.0321 159.051 77.2481 159.051 77.4961V79.4341H158.142V77.6161C158.142 77.4121 158.078 77.2521 157.95 77.1361C157.822 77.0161 157.647 76.9561 157.426 76.9561C157.271 76.9561 157.134 76.9841 157.015 77.0401C156.896 77.0921 156.796 77.1681 156.717 77.2681V79.4341H155.808Z" fill="black"/>
<path d="M153.23 79.4882C152.983 79.4882 152.764 79.4482 152.574 79.3682C152.384 79.2842 152.236 79.1702 152.13 79.0262C152.024 78.8822 151.97 78.7162 151.97 78.5282C151.97 78.2282 152.094 77.9962 152.342 77.8322C152.594 77.6642 152.939 77.5802 153.376 77.5802C153.677 77.5802 153.96 77.6222 154.225 77.7062V77.4782C154.225 77.2982 154.163 77.1622 154.04 77.0702C153.916 76.9782 153.734 76.9322 153.496 76.9322C153.35 76.9322 153.193 76.9542 153.025 76.9982C152.857 77.0382 152.662 77.1022 152.441 77.1902L152.11 76.5842C152.384 76.4722 152.645 76.3882 152.892 76.3322C153.144 76.2762 153.396 76.2482 153.648 76.2482C154.112 76.2482 154.473 76.3502 154.729 76.5542C154.99 76.7542 155.12 77.0382 155.12 77.4062V79.4342H154.225V79.2122C154.084 79.3082 153.931 79.3782 153.768 79.4222C153.604 79.4662 153.425 79.4882 153.23 79.4882ZM152.833 78.5102C152.833 78.6302 152.89 78.7262 153.005 78.7982C153.12 78.8662 153.272 78.9002 153.463 78.9002C153.613 78.9002 153.752 78.8842 153.88 78.8522C154.009 78.8162 154.124 78.7642 154.225 78.6962V78.2402C154.115 78.2002 154 78.1702 153.88 78.1502C153.761 78.1302 153.633 78.1202 153.496 78.1202C153.288 78.1202 153.124 78.1562 153.005 78.2282C152.89 78.2962 152.833 78.3902 152.833 78.5102Z" fill="black"/>
<path d="M150.957 79.4821C150.572 79.4821 150.281 79.4041 150.082 79.2481C149.887 79.0881 149.79 78.8561 149.79 78.5521V76.9921H149.08V76.3081H149.79V75.5101L150.698 75.3241V76.3081H151.686V76.9921H150.698V78.3841C150.698 78.5281 150.734 78.6321 150.804 78.6961C150.875 78.7561 150.999 78.7861 151.176 78.7861C151.264 78.7861 151.344 78.7821 151.415 78.7741C151.49 78.7621 151.571 78.7421 151.66 78.7141V79.3921C151.567 79.4201 151.45 79.4421 151.308 79.4581C151.171 79.4741 151.054 79.4821 150.957 79.4821Z" fill="black"/>
<path d="M145.485 79.4342V76.3082H146.394V76.5662C146.654 76.3542 146.977 76.2482 147.362 76.2482C147.632 76.2482 147.868 76.3022 148.071 76.4102C148.279 76.5142 148.441 76.6602 148.556 76.8482C148.671 77.0322 148.728 77.2482 148.728 77.4962V79.4342H147.819V77.6162C147.819 77.4122 147.755 77.2522 147.627 77.1362C147.499 77.0162 147.324 76.9562 147.103 76.9562C146.948 76.9562 146.811 76.9842 146.692 77.0402C146.573 77.0922 146.473 77.1682 146.394 77.2682V79.4342H145.485Z" fill="black"/>
<path d="M143.866 79.4341V76.3081H144.774V79.4341H143.866ZM144.317 75.9361C144.175 75.9361 144.054 75.8901 143.952 75.7981C143.85 75.7061 143.8 75.5961 143.8 75.4681C143.8 75.3361 143.85 75.2261 143.952 75.1381C144.054 75.0461 144.175 75.0001 144.317 75.0001C144.463 75.0001 144.584 75.0461 144.682 75.1381C144.783 75.2261 144.834 75.3361 144.834 75.4681C144.834 75.5961 144.783 75.7061 144.682 75.7981C144.584 75.8901 144.463 75.9361 144.317 75.9361Z" fill="black"/>
<path d="M141.159 79.4341V76.3081H142.067V76.6561C142.178 76.5201 142.311 76.4161 142.465 76.3441C142.62 76.2721 142.795 76.2361 142.989 76.2361C143.157 76.2401 143.283 76.2641 143.367 76.3081V77.0281C143.301 77.0001 143.228 76.9801 143.148 76.9681C143.069 76.9521 142.987 76.9441 142.903 76.9441C142.726 76.9441 142.565 76.9841 142.419 77.0641C142.273 77.1441 142.156 77.2581 142.067 77.4061V79.4341H141.159Z" fill="black"/>
<path d="M138.964 79.4942C138.619 79.4942 138.305 79.4222 138.023 79.2782C137.744 79.1342 137.523 78.9402 137.359 78.6962C137.196 78.4522 137.114 78.1782 137.114 77.8742C137.114 77.5702 137.191 77.2962 137.346 77.0522C137.505 76.8082 137.72 76.6142 137.989 76.4702C138.259 76.3262 138.56 76.2542 138.891 76.2542C139.223 76.2542 139.517 76.3282 139.773 76.4762C140.03 76.6242 140.231 76.8242 140.377 77.0762C140.527 77.3282 140.602 77.6142 140.602 77.9342V78.1502H138.042C138.082 78.2742 138.146 78.3862 138.235 78.4862C138.328 78.5862 138.44 78.6642 138.573 78.7202C138.71 78.7762 138.856 78.8042 139.011 78.8042C139.165 78.8042 139.307 78.7822 139.435 78.7382C139.568 78.6942 139.68 78.6322 139.773 78.5522L140.37 79.0442C140.158 79.2002 139.939 79.3142 139.714 79.3862C139.493 79.4582 139.243 79.4942 138.964 79.4942ZM138.029 77.5622H139.707C139.676 77.4382 139.619 77.3302 139.535 77.2382C139.455 77.1422 139.358 77.0682 139.243 77.0162C139.132 76.9602 139.008 76.9322 138.871 76.9322C138.73 76.9322 138.602 76.9582 138.487 77.0102C138.372 77.0622 138.275 77.1362 138.195 77.2322C138.12 77.3242 138.065 77.4342 138.029 77.5622Z" fill="black"/>
<path d="M131.27 79.4342V76.3082H132.178V76.5482C132.426 76.3482 132.727 76.2482 133.08 76.2482C133.306 76.2482 133.507 76.2902 133.684 76.3742C133.861 76.4542 134.006 76.5682 134.121 76.7162C134.263 76.5642 134.429 76.4482 134.619 76.3682C134.813 76.2882 135.028 76.2482 135.262 76.2482C135.523 76.2482 135.751 76.3022 135.945 76.4102C136.144 76.5142 136.299 76.6602 136.409 76.8482C136.524 77.0322 136.582 77.2482 136.582 77.4962V79.4342H135.68V77.6162C135.68 77.4122 135.62 77.2522 135.501 77.1362C135.381 77.0162 135.222 76.9562 135.023 76.9562C134.886 76.9562 134.76 76.9822 134.645 77.0342C134.535 77.0862 134.44 77.1642 134.36 77.2682C134.365 77.3042 134.369 77.3402 134.373 77.3762C134.378 77.4122 134.38 77.4522 134.38 77.4962V79.4342H133.471V77.6162C133.471 77.4122 133.412 77.2522 133.292 77.1362C133.177 77.0162 133.021 76.9562 132.822 76.9562C132.685 76.9562 132.561 76.9802 132.45 77.0282C132.344 77.0762 132.253 77.1482 132.178 77.2442V79.4342H131.27Z" fill="black"/>
<path d="M129.075 79.4942C128.73 79.4942 128.416 79.4222 128.133 79.2782C127.855 79.1342 127.634 78.9402 127.47 78.6962C127.307 78.4522 127.225 78.1782 127.225 77.8742C127.225 77.5702 127.302 77.2962 127.457 77.0522C127.616 76.8082 127.831 76.6142 128.1 76.4702C128.37 76.3262 128.671 76.2542 129.002 76.2542C129.334 76.2542 129.628 76.3282 129.884 76.4762C130.141 76.6242 130.342 76.8242 130.488 77.0762C130.638 77.3282 130.713 77.6142 130.713 77.9342V78.1502H128.153C128.193 78.2742 128.257 78.3862 128.346 78.4862C128.438 78.5862 128.551 78.6642 128.684 78.7202C128.821 78.7762 128.967 78.8042 129.122 78.8042C129.276 78.8042 129.418 78.7822 129.546 78.7382C129.679 78.6942 129.791 78.6322 129.884 78.5522L130.481 79.0442C130.269 79.2002 130.05 79.3142 129.824 79.3862C129.603 79.4582 129.354 79.4942 129.075 79.4942ZM128.14 77.5622H129.818C129.787 77.4382 129.729 77.3302 129.645 77.2382C129.566 77.1422 129.469 77.0682 129.354 77.0162C129.243 76.9602 129.119 76.9322 128.982 76.9322C128.841 76.9322 128.713 76.9582 128.598 77.0102C128.483 77.0622 128.385 77.1362 128.306 77.2322C128.231 77.3242 128.175 77.4342 128.14 77.5622Z" fill="black"/>
<path d="M123.254 79.4341V75.2341H125.581C125.886 75.2341 126.154 75.2901 126.384 75.4021C126.618 75.5141 126.801 75.6701 126.934 75.8701C127.067 76.0661 127.133 76.2941 127.133 76.5541C127.133 76.8021 127.067 77.0241 126.934 77.2201C126.801 77.4161 126.618 77.5701 126.384 77.6821C126.149 77.7941 125.882 77.8501 125.581 77.8501H124.215V79.4341H123.254ZM124.215 77.1301H125.475C125.683 77.1301 125.849 77.0781 125.973 76.9741C126.101 76.8701 126.165 76.7321 126.165 76.5601C126.165 76.3841 126.101 76.2441 125.973 76.1401C125.849 76.0361 125.683 75.9841 125.475 75.9841H124.215V77.1301Z" fill="black"/>
<path d="M120.241 79.4341V76.3081H121.149V79.4341H120.241ZM120.692 75.9361C120.55 75.9361 120.429 75.8901 120.327 75.7981C120.225 75.7061 120.174 75.5961 120.174 75.4681C120.174 75.3361 120.225 75.2261 120.327 75.1381C120.429 75.0461 120.55 75.0001 120.692 75.0001C120.837 75.0001 120.959 75.0461 121.056 75.1381C121.158 75.2261 121.209 75.3361 121.209 75.4681C121.209 75.5961 121.158 75.7061 121.056 75.7981C120.959 75.8901 120.837 75.9361 120.692 75.9361Z" fill="black"/>
<path d="M118.276 79.4942C117.958 79.4942 117.664 79.4582 117.394 79.3862C117.125 79.3102 116.89 79.2022 116.691 79.0622L117.142 78.5162C117.341 78.6362 117.531 78.7262 117.713 78.7862C117.898 78.8462 118.082 78.8762 118.263 78.8762C118.466 78.8762 118.628 78.8462 118.747 78.7862C118.871 78.7222 118.933 78.6402 118.933 78.5402C118.933 78.4602 118.898 78.3962 118.827 78.3482C118.76 78.3002 118.652 78.2662 118.502 78.2462L117.839 78.1562C117.494 78.1082 117.233 78.0082 117.056 77.8562C116.879 77.7002 116.791 77.4962 116.791 77.2442C116.791 77.0402 116.848 76.8662 116.963 76.7222C117.083 76.5742 117.248 76.4602 117.461 76.3802C117.677 76.2962 117.934 76.2542 118.23 76.2542C118.482 76.2542 118.727 76.2862 118.966 76.3502C119.209 76.4142 119.437 76.5122 119.649 76.6442L119.211 77.1782C119.021 77.0702 118.84 76.9922 118.668 76.9442C118.495 76.8962 118.321 76.8722 118.144 76.8722C117.98 76.8722 117.848 76.9002 117.746 76.9562C117.649 77.0122 117.6 77.0862 117.6 77.1782C117.6 77.2622 117.635 77.3282 117.706 77.3762C117.777 77.4242 117.898 77.4582 118.071 77.4782L118.727 77.5682C119.072 77.6122 119.335 77.7122 119.516 77.8682C119.698 78.0202 119.788 78.2182 119.788 78.4622C119.788 78.6622 119.722 78.8402 119.589 78.9962C119.457 79.1482 119.278 79.2702 119.052 79.3622C118.827 79.4502 118.568 79.4942 118.276 79.4942Z" fill="black"/>
<path d="M113.052 79.4342V76.3082H113.961V76.5662C114.222 76.3542 114.544 76.2482 114.929 76.2482C115.199 76.2482 115.435 76.3022 115.638 76.4102C115.846 76.5142 116.008 76.6602 116.123 76.8482C116.238 77.0322 116.295 77.2482 116.295 77.4962V79.4342H115.386V77.6162C115.386 77.4122 115.322 77.2522 115.194 77.1362C115.066 77.0162 114.891 76.9562 114.67 76.9562C114.516 76.9562 114.378 76.9842 114.259 77.0402C114.14 77.0922 114.04 77.1682 113.961 77.2682V79.4342H113.052Z" fill="black"/>
<path d="M110.474 79.4882C110.227 79.4882 110.008 79.4482 109.818 79.3682C109.628 79.2842 109.48 79.1702 109.374 79.0262C109.268 78.8822 109.214 78.7162 109.214 78.5282C109.214 78.2282 109.338 77.9962 109.586 77.8322C109.838 77.6642 110.183 77.5802 110.62 77.5802C110.921 77.5802 111.204 77.6222 111.469 77.7062V77.4782C111.469 77.2982 111.407 77.1622 111.284 77.0702C111.16 76.9782 110.978 76.9322 110.74 76.9322C110.594 76.9322 110.437 76.9542 110.269 76.9982C110.101 77.0382 109.906 77.1022 109.685 77.1902L109.354 76.5842C109.628 76.4722 109.889 76.3882 110.136 76.3322C110.388 76.2762 110.64 76.2482 110.892 76.2482C111.356 76.2482 111.717 76.3502 111.973 76.5542C112.234 76.7542 112.365 77.0382 112.365 77.4062V79.4342H111.469V79.2122C111.328 79.3082 111.175 79.3782 111.012 79.4222C110.848 79.4662 110.669 79.4882 110.474 79.4882ZM110.077 78.5102C110.077 78.6302 110.134 78.7262 110.249 78.7982C110.364 78.8662 110.516 78.9002 110.707 78.9002C110.857 78.9002 110.996 78.8842 111.124 78.8522C111.253 78.8162 111.368 78.7642 111.469 78.6962V78.2402C111.359 78.2002 111.244 78.1702 111.124 78.1502C111.005 78.1302 110.877 78.1202 110.74 78.1202C110.532 78.1202 110.368 78.1562 110.249 78.2282C110.134 78.2962 110.077 78.3902 110.077 78.5102Z" fill="black"/>
<path d="M108.201 79.4821C107.816 79.4821 107.525 79.4041 107.326 79.2481C107.131 79.0881 107.034 78.8561 107.034 78.5521V76.9921H106.324V76.3081H107.034V75.5101L107.942 75.3241V76.3081H108.93V76.9921H107.942V78.3841C107.942 78.5281 107.978 78.6321 108.048 78.6961C108.119 78.7561 108.243 78.7861 108.42 78.7861C108.508 78.7861 108.588 78.7821 108.659 78.7741C108.734 78.7621 108.816 78.7421 108.904 78.7141V79.3921C108.811 79.4201 108.694 79.4421 108.552 79.4581C108.415 79.4741 108.298 79.4821 108.201 79.4821Z" fill="black"/>
<path d="M104.663 79.4942C104.345 79.4942 104.051 79.4582 103.781 79.3862C103.512 79.3102 103.277 79.2022 103.078 79.0622L103.529 78.5162C103.728 78.6362 103.918 78.7262 104.1 78.7862C104.285 78.8462 104.469 78.8762 104.65 78.8762C104.853 78.8762 105.015 78.8462 105.134 78.7862C105.258 78.7222 105.32 78.6402 105.32 78.5402C105.32 78.4602 105.284 78.3962 105.214 78.3482C105.147 78.3002 105.039 78.2662 104.889 78.2462L104.226 78.1562C103.881 78.1082 103.62 78.0082 103.443 77.8562C103.266 77.7002 103.178 77.4962 103.178 77.2442C103.178 77.0402 103.235 76.8662 103.35 76.7222C103.47 76.5742 103.635 76.4602 103.848 76.3802C104.064 76.2962 104.321 76.2542 104.617 76.2542C104.869 76.2542 105.114 76.2862 105.353 76.3502C105.596 76.4142 105.824 76.5122 106.036 76.6442L105.598 77.1782C105.408 77.0702 105.227 76.9922 105.055 76.9442C104.882 76.8962 104.708 76.8722 104.531 76.8722C104.367 76.8722 104.234 76.9002 104.133 76.9562C104.036 77.0122 103.987 77.0862 103.987 77.1782C103.987 77.2622 104.022 77.3282 104.093 77.3762C104.164 77.4242 104.285 77.4582 104.458 77.4782L105.114 77.5682C105.459 77.6122 105.722 77.7122 105.903 77.8682C106.085 78.0202 106.175 78.2182 106.175 78.4622C106.175 78.6622 106.109 78.8402 105.976 78.9962C105.844 79.1482 105.665 79.2702 105.439 79.3622C105.214 79.4502 104.955 79.4942 104.663 79.4942Z" fill="black"/>
<path d="M99.4392 79.4342V76.3082H100.348V76.5662C100.609 76.3542 100.931 76.2482 101.316 76.2482C101.586 76.2482 101.822 76.3022 102.026 76.4102C102.233 76.5142 102.395 76.6602 102.51 76.8482C102.625 77.0322 102.682 77.2482 102.682 77.4962V79.4342H101.774V77.6162C101.774 77.4122 101.709 77.2522 101.581 77.1362C101.453 77.0162 101.278 76.9562 101.057 76.9562C100.903 76.9562 100.766 76.9842 100.646 77.0402C100.527 77.0922 100.427 77.1682 100.348 77.2682V79.4342H99.4392Z" fill="black"/>
<path d="M97.6919 79.4341V75.2341H98.6535V79.4341H97.6919Z" fill="black"/>
<path d="M93.7205 79.4882C93.4729 79.4882 93.254 79.4482 93.0639 79.3682C92.8738 79.2842 92.7257 79.1702 92.6196 79.0262C92.5135 78.8822 92.4604 78.7162 92.4604 78.5282C92.4604 78.2282 92.5842 77.9962 92.8318 77.8322C93.0838 77.6642 93.4287 77.5802 93.8664 77.5802C94.167 77.5802 94.4499 77.6222 94.7152 77.7062V77.4782C94.7152 77.2982 94.6533 77.1622 94.5295 77.0702C94.4057 76.9782 94.2245 76.9322 93.9857 76.9322C93.8398 76.9322 93.6829 76.9542 93.5149 76.9982C93.3469 77.0382 93.1524 77.1022 92.9313 77.1902L92.5997 76.5842C92.8738 76.4722 93.1347 76.3882 93.3822 76.3322C93.6342 76.2762 93.8863 76.2482 94.1383 76.2482C94.6025 76.2482 94.9628 76.3502 95.2192 76.5542C95.4801 76.7542 95.6105 77.0382 95.6105 77.4062V79.4342H94.7152V79.2122C94.5737 79.3082 94.4212 79.3782 94.2576 79.4222C94.094 79.4662 93.915 79.4882 93.7205 79.4882ZM93.3226 78.5102C93.3226 78.6302 93.38 78.7262 93.495 78.7982C93.6099 78.8662 93.7625 78.9002 93.9526 78.9002C94.1029 78.9002 94.2421 78.8842 94.3704 78.8522C94.4986 78.8162 94.6135 78.7642 94.7152 78.6962V78.2402C94.6047 78.2002 94.4897 78.1702 94.3704 78.1502C94.251 78.1302 94.1228 78.1202 93.9857 78.1202C93.7779 78.1202 93.6144 78.1562 93.495 78.2282C93.38 78.2962 93.3226 78.3902 93.3226 78.5102Z" fill="black"/>
<path d="M91.4515 75.9361C91.31 75.9361 91.1885 75.8901 91.0868 75.7981C90.9851 75.7061 90.9342 75.5961 90.9342 75.4681C90.9342 75.3361 90.9851 75.2261 91.0868 75.1381C91.1885 75.0461 91.31 75.0001 91.4515 75.0001C91.5974 75.0001 91.719 75.0461 91.8163 75.1381C91.9179 75.2261 91.9688 75.3361 91.9688 75.4681C91.9688 75.5961 91.9179 75.7061 91.8163 75.7981C91.719 75.8901 91.5974 75.9361 91.4515 75.9361ZM90.7884 80.7181C90.7044 80.7181 90.6181 80.7121 90.5297 80.7001C90.4413 80.6921 90.3706 80.6801 90.3175 80.6641V80.0341C90.3971 80.0501 90.4943 80.0581 90.6093 80.0581C90.7419 80.0581 90.8392 80.0321 90.9011 79.9801C90.9674 79.9321 91.0006 79.8521 91.0006 79.7401V76.3081H91.9091V79.7881C91.9091 80.0841 91.8118 80.3121 91.6173 80.4721C91.4228 80.6361 91.1465 80.7181 90.7884 80.7181Z" fill="black"/>
<path d="M88.2936 79.4341V76.3081H89.2021V76.6561C89.3126 76.5201 89.4453 76.4161 89.6 76.3441C89.7548 76.2721 89.9294 76.2361 90.1239 76.2361C90.2919 76.2401 90.4179 76.2641 90.5019 76.3081V77.0281C90.4356 77.0001 90.3627 76.9801 90.2831 76.9681C90.2035 76.9521 90.1217 76.9441 90.0377 76.9441C89.8609 76.9441 89.6995 76.9841 89.5536 77.0641C89.4077 77.1441 89.2905 77.2581 89.2021 77.4061V79.4341H88.2936Z" fill="black"/>
<path d="M86.0989 79.4942C85.754 79.4942 85.4401 79.4222 85.1572 79.2782C84.8787 79.1342 84.6576 78.9402 84.494 78.6962C84.3304 78.4522 84.2487 78.1782 84.2487 77.8742C84.2487 77.5702 84.326 77.2962 84.4808 77.0522C84.6399 76.8082 84.8543 76.6142 85.124 76.4702C85.3937 76.3262 85.6944 76.2542 86.0259 76.2542C86.3575 76.2542 86.6515 76.3282 86.9079 76.4762C87.1644 76.6242 87.3655 76.8242 87.5114 77.0762C87.6617 77.3282 87.7369 77.6142 87.7369 77.9342V78.1502H85.1771C85.2169 78.2742 85.281 78.3862 85.3694 78.4862C85.4622 78.5862 85.575 78.6642 85.7076 78.7202C85.8447 78.7762 85.9906 78.8042 86.1453 78.8042C86.3 78.8042 86.4415 78.7822 86.5697 78.7382C86.7024 78.6942 86.8151 78.6322 86.9079 78.5522L87.5048 79.0442C87.2926 79.2002 87.0737 79.3142 86.8483 79.3862C86.6272 79.4582 86.3774 79.4942 86.0989 79.4942ZM85.1638 77.5622H86.8416C86.8107 77.4382 86.7532 77.3302 86.6692 77.2382C86.5896 77.1422 86.4924 77.0682 86.3774 77.0162C86.2669 76.9602 86.1431 76.9322 86.006 76.9322C85.8646 76.9322 85.7364 76.9582 85.6214 77.0102C85.5065 77.0622 85.4092 77.1362 85.3296 77.2322C85.2545 77.3242 85.1992 77.4342 85.1638 77.5622Z" fill="black"/>
<path d="M80.4768 79.4342V76.3082H81.3853V76.5662C81.6462 76.3542 81.9689 76.2482 82.3536 76.2482C82.6233 76.2482 82.8598 76.3022 83.0632 76.4102C83.2709 76.5142 83.4323 76.6602 83.5473 76.8482C83.6622 77.0322 83.7197 77.2482 83.7197 77.4962V79.4342H82.8111V77.6162C82.8111 77.4122 82.747 77.2522 82.6188 77.1362C82.4906 77.0162 82.316 76.9562 82.0949 76.9562C81.9402 76.9562 81.8031 76.9842 81.6838 77.0402C81.5644 77.0922 81.4649 77.1682 81.3853 77.2682V79.4342H80.4768Z" fill="black"/>
<path d="M78.8577 79.4341V76.3081H79.7662V79.4341H78.8577ZM79.3087 75.9361C79.1672 75.9361 79.0456 75.8901 78.9439 75.7981C78.8422 75.7061 78.7914 75.5961 78.7914 75.4681C78.7914 75.3361 78.8422 75.2261 78.9439 75.1381C79.0456 75.0461 79.1672 75.0001 79.3087 75.0001C79.4545 75.0001 79.5761 75.0461 79.6734 75.1381C79.7751 75.2261 79.8259 75.3361 79.8259 75.4681C79.8259 75.5961 79.7751 75.7061 79.6734 75.7981C79.5761 75.8901 79.4545 75.9361 79.3087 75.9361Z" fill="black"/>
<path d="M74.2933 79.4341V75.2341H75.2549V77.1121L77.2842 75.2341H78.458L76.2032 77.2321L78.5641 79.4341H77.2776L75.2549 77.4841V79.4341H74.2933Z" fill="black"/>
<path d="M70.9352 79.4942C70.6169 79.4942 70.3229 79.4582 70.0532 79.3862C69.7835 79.3102 69.5492 79.2022 69.3502 79.0622L69.8012 78.5162C70.0001 78.6362 70.1902 78.7262 70.3715 78.7862C70.5572 78.8462 70.7407 78.8762 70.9219 78.8762C71.1253 78.8762 71.2867 78.8462 71.406 78.7862C71.5298 78.7222 71.5917 78.6402 71.5917 78.5402C71.5917 78.4602 71.5563 78.3962 71.4856 78.3482C71.4193 78.3002 71.311 78.2662 71.1607 78.2462L70.4975 78.1562C70.1526 78.1082 69.8918 78.0082 69.715 77.8562C69.5381 77.7002 69.4497 77.4962 69.4497 77.2442C69.4497 77.0402 69.5072 76.8662 69.6221 76.7222C69.7415 76.5742 69.9073 76.4602 70.1195 76.3802C70.3361 76.2962 70.5925 76.2542 70.8888 76.2542C71.1408 76.2542 71.3861 76.2862 71.6249 76.3502C71.868 76.4142 72.0957 76.5122 72.3079 76.6442L71.8702 77.1782C71.6801 77.0702 71.4989 76.9922 71.3264 76.9442C71.154 76.8962 70.9794 76.8722 70.8025 76.8722C70.639 76.8722 70.5063 76.9002 70.4046 76.9562C70.3074 77.0122 70.2588 77.0862 70.2588 77.1782C70.2588 77.2622 70.2941 77.3282 70.3649 77.3762C70.4356 77.4242 70.5572 77.4582 70.7296 77.4782L71.3861 77.5682C71.731 77.6122 71.994 77.7122 72.1753 77.8682C72.3566 78.0202 72.4472 78.2182 72.4472 78.4622C72.4472 78.6622 72.3809 78.8402 72.2482 78.9962C72.1156 79.1482 71.9366 79.2702 71.7111 79.3622C71.4856 79.4502 71.227 79.4942 70.9352 79.4942Z" fill="black"/>
<path d="M67.0645 79.4882C66.8169 79.4882 66.598 79.4482 66.4079 79.3682C66.2178 79.2842 66.0697 79.1702 65.9636 79.0262C65.8575 78.8822 65.8044 78.7162 65.8044 78.5282C65.8044 78.2282 65.9282 77.9962 66.1758 77.8322C66.4278 77.6642 66.7727 77.5802 67.2104 77.5802C67.511 77.5802 67.7939 77.6222 68.0592 77.7062V77.4782C68.0592 77.2982 67.9973 77.1622 67.8735 77.0702C67.7497 76.9782 67.5685 76.9322 67.3297 76.9322C67.1838 76.9322 67.0269 76.9542 66.8589 76.9982C66.6909 77.0382 66.4963 77.1022 66.2753 77.1902L65.9437 76.5842C66.2178 76.4722 66.4787 76.3882 66.7262 76.3322C66.9782 76.2762 67.2302 76.2482 67.4823 76.2482C67.9465 76.2482 68.3068 76.3502 68.5632 76.5542C68.824 76.7542 68.9545 77.0382 68.9545 77.4062V79.4342H68.0592V79.2122C67.9177 79.3082 67.7652 79.3782 67.6016 79.4222C67.438 79.4662 67.259 79.4882 67.0645 79.4882ZM66.6666 78.5102C66.6666 78.6302 66.724 78.7262 66.839 78.7982C66.9539 78.8662 67.1065 78.9002 67.2966 78.9002C67.4469 78.9002 67.5861 78.8842 67.7144 78.8522C67.8426 78.8162 67.9575 78.7642 68.0592 78.6962V78.2402C67.9487 78.2002 67.8337 78.1702 67.7144 78.1502C67.595 78.1302 67.4668 78.1202 67.3297 78.1202C67.1219 78.1202 66.9584 78.1562 66.839 78.2282C66.724 78.2962 66.6666 78.3902 66.6666 78.5102Z" fill="black"/>
<path d="M64.7908 79.4821C64.4062 79.4821 64.1144 79.4041 63.9154 79.2481C63.7209 79.0881 63.6236 78.8561 63.6236 78.5521V76.9921H62.9141V76.3081H63.6236V75.5101L64.5322 75.3241V76.3081H65.5203V76.9921H64.5322V78.3841C64.5322 78.5281 64.5675 78.6321 64.6383 78.6961C64.709 78.7561 64.8328 78.7861 65.0097 78.7861C65.0981 78.7861 65.1777 78.7821 65.2484 78.7741C65.3236 78.7621 65.4053 78.7421 65.4938 78.7141V79.3921C65.4009 79.4201 65.2838 79.4421 65.1423 79.4581C65.0052 79.4741 64.8881 79.4821 64.7908 79.4821Z" fill="black"/>
<path d="M61.5338 79.4341V76.3081H62.4424V79.4341H61.5338ZM61.9848 75.9361C61.8433 75.9361 61.7217 75.8901 61.6201 75.7981C61.5184 75.7061 61.4675 75.5961 61.4675 75.4681C61.4675 75.3361 61.5184 75.2261 61.6201 75.1381C61.7217 75.0461 61.8433 75.0001 61.9848 75.0001C62.1307 75.0001 62.2523 75.0461 62.3495 75.1381C62.4512 75.2261 62.5021 75.3361 62.5021 75.4681C62.5021 75.5961 62.4512 75.7061 62.3495 75.7981C62.2523 75.8901 62.1307 75.9361 61.9848 75.9361Z" fill="black"/>
<path d="M59.9148 79.4341V75.2341L60.8233 75.0961V79.4341H59.9148Z" fill="black"/>
<path d="M58.2957 79.4341V76.3081H59.2042V79.4341H58.2957ZM58.7466 75.9361C58.6052 75.9361 58.4836 75.8901 58.3819 75.7981C58.2802 75.7061 58.2294 75.5961 58.2294 75.4681C58.2294 75.3361 58.2802 75.2261 58.3819 75.1381C58.4836 75.0461 58.6052 75.0001 58.7466 75.0001C58.8925 75.0001 59.0141 75.0461 59.1114 75.1381C59.2131 75.2261 59.2639 75.3361 59.2639 75.4681C59.2639 75.5961 59.2131 75.7061 59.1114 75.7981C59.0141 75.8901 58.8925 75.9361 58.7466 75.9361Z" fill="black"/>
<path d="M54.1122 79.4341V75.2341L55.0207 75.0961V76.5601C55.2948 76.3641 55.6176 76.2661 55.9889 76.2661C56.3161 76.2661 56.6123 76.3381 56.8776 76.4821C57.1428 76.6261 57.3528 76.8201 57.5076 77.0641C57.6667 77.3041 57.7463 77.5741 57.7463 77.8741C57.7463 78.1741 57.6667 78.4461 57.5076 78.6901C57.3484 78.9301 57.134 79.1221 56.8643 79.2661C56.5946 79.4061 56.294 79.4761 55.9624 79.4761C55.79 79.4761 55.622 79.4541 55.4584 79.4101C55.2948 79.3661 55.1445 79.3021 55.0075 79.2181V79.4341H54.1122ZM55.843 78.7801C56.0331 78.7801 56.2034 78.7401 56.3537 78.6601C56.5084 78.5801 56.63 78.4721 56.7184 78.3361C56.8068 78.2001 56.8511 78.0461 56.8511 77.8741C56.8511 77.7021 56.8068 77.5481 56.7184 77.4121C56.63 77.2721 56.5084 77.1641 56.3537 77.0881C56.2034 77.0081 56.0331 76.9681 55.843 76.9681C55.675 76.9681 55.5203 76.9941 55.3788 77.0461C55.2418 77.0941 55.1224 77.1681 55.0207 77.2681V78.4861C55.118 78.5781 55.2374 78.6501 55.3788 78.7021C55.5247 78.7541 55.6795 78.7801 55.843 78.7801Z" fill="black"/>
<path d="M51.5344 79.4882C51.2868 79.4882 51.068 79.4482 50.8779 79.3682C50.6878 79.2842 50.5397 79.1702 50.4336 79.0262C50.3275 78.8822 50.2744 78.7162 50.2744 78.5282C50.2744 78.2282 50.3982 77.9962 50.6458 77.8322C50.8978 77.6642 51.2426 77.5802 51.6803 77.5802C51.981 77.5802 52.2639 77.6222 52.5292 77.7062V77.4782C52.5292 77.2982 52.4673 77.1622 52.3435 77.0702C52.2197 76.9782 52.0384 76.9322 51.7997 76.9322C51.6538 76.9322 51.4968 76.9542 51.3288 76.9982C51.1608 77.0382 50.9663 77.1022 50.7453 77.1902L50.4137 76.5842C50.6878 76.4722 50.9486 76.3882 51.1962 76.3322C51.4482 76.2762 51.7002 76.2482 51.9522 76.2482C52.4164 76.2482 52.7768 76.3502 53.0332 76.5542C53.294 76.7542 53.4244 77.0382 53.4244 77.4062V79.4342H52.5292V79.2122C52.3877 79.3082 52.2352 79.3782 52.0716 79.4222C51.908 79.4662 51.729 79.4882 51.5344 79.4882ZM51.1365 78.5102C51.1365 78.6302 51.194 78.7262 51.309 78.7982C51.4239 78.8662 51.5764 78.9002 51.7665 78.9002C51.9168 78.9002 52.0561 78.8842 52.1843 78.8522C52.3125 78.8162 52.4275 78.7642 52.5292 78.6962V78.2402C52.4186 78.2002 52.3037 78.1702 52.1843 78.1502C52.065 78.1302 51.9367 78.1202 51.7997 78.1202C51.5919 78.1202 51.4283 78.1562 51.309 78.2282C51.194 78.2962 51.1365 78.3902 51.1365 78.5102Z" fill="black"/>
<path d="M49.261 79.4821C48.8763 79.4821 48.5845 79.4041 48.3856 79.2481C48.1911 79.0881 48.0938 78.8561 48.0938 78.5521V76.9921H47.3842V76.3081H48.0938V75.5101L49.0023 75.3241V76.3081H49.9904V76.9921H49.0023V78.3841C49.0023 78.5281 49.0377 78.6321 49.1084 78.6961C49.1792 78.7561 49.303 78.7861 49.4798 78.7861C49.5682 78.7861 49.6478 78.7821 49.7186 78.7741C49.7937 78.7621 49.8755 78.7421 49.9639 78.7141V79.3921C49.8711 79.4201 49.7539 79.4421 49.6124 79.4581C49.4754 79.4741 49.3582 79.4821 49.261 79.4821Z" fill="black"/>
<path d="M43.7891 79.4342V76.3082H44.6976V76.5662C44.9584 76.3542 45.2812 76.2482 45.6658 76.2482C45.9355 76.2482 46.172 76.3022 46.3754 76.4102C46.5832 76.5142 46.7446 76.6602 46.8595 76.8482C46.9745 77.0322 47.0319 77.2482 47.0319 77.4962V79.4342H46.1234V77.6162C46.1234 77.4122 46.0593 77.2522 45.9311 77.1362C45.8029 77.0162 45.6282 76.9562 45.4072 76.9562C45.2524 76.9562 45.1154 76.9842 44.996 77.0402C44.8767 77.0922 44.7772 77.1682 44.6976 77.2682V79.4342H43.7891Z" fill="black"/>
<path d="M41.1975 79.4941C40.9323 79.4941 40.6957 79.4421 40.488 79.3381C40.2846 79.2301 40.1232 79.0821 40.0038 78.8941C39.8889 78.7061 39.8314 78.4901 39.8314 78.2461V76.3081H40.74V78.1261C40.74 78.3261 40.8041 78.4861 40.9323 78.6061C41.0649 78.7261 41.2418 78.7861 41.4628 78.7861C41.6131 78.7861 41.748 78.7601 41.8673 78.7081C41.9911 78.6521 42.0928 78.5741 42.1724 78.4741V76.3081H43.0809V79.4341H42.1724V79.1821C41.9071 79.3901 41.5822 79.4941 41.1975 79.4941Z" fill="black"/>
<path d="M36.186 79.4341V75.2341L37.0945 75.0961V77.6221L38.5866 76.3081H39.6145L37.9832 77.7421L39.714 79.4341H38.5535L37.0945 78.0061V79.4341H36.186Z" fill="black"/>
<path d="M30.9442 79.4341L32.8541 75.2341H33.9616L35.8516 79.4341H34.8104L34.3396 78.3301H32.423L31.9455 79.4341H30.9442ZM32.7214 77.6341H34.0478L33.3846 76.0861L32.7214 77.6341Z" fill="black"/>
<path d="M23.9913 79.4342V76.3082H24.8998V76.5482C25.1474 76.3482 25.448 76.2482 25.8017 76.2482C26.0272 76.2482 26.2283 76.2902 26.4052 76.3742C26.582 76.4542 26.7279 76.5682 26.8429 76.7162C26.9844 76.5642 27.1501 76.4482 27.3403 76.3682C27.5348 76.2882 27.7492 76.2482 27.9835 76.2482C28.2444 76.2482 28.4721 76.3022 28.6666 76.4102C28.8655 76.5142 29.0203 76.6602 29.1308 76.8482C29.2457 77.0322 29.3032 77.2482 29.3032 77.4962V79.4342H28.4013V77.6162C28.4013 77.4122 28.3416 77.2522 28.2223 77.1362C28.1029 77.0162 27.9437 76.9562 27.7448 76.9562C27.6077 76.9562 27.4817 76.9822 27.3668 77.0342C27.2563 77.0862 27.1612 77.1642 27.0816 77.2682C27.086 77.3042 27.0905 77.3402 27.0949 77.3762C27.0993 77.4122 27.1015 77.4522 27.1015 77.4962V79.4342H26.193V77.6162C26.193 77.4122 26.1333 77.2522 26.0139 77.1362C25.899 77.0162 25.742 76.9562 25.5431 76.9562C25.406 76.9562 25.2822 76.9802 25.1717 77.0282C25.0656 77.0762 24.975 77.1482 24.8998 77.2442V79.4342H23.9913Z" fill="black"/>
<path d="M21.7966 79.4942C21.4517 79.4942 21.1378 79.4222 20.8549 79.2782C20.5764 79.1342 20.3553 78.9402 20.1917 78.6962C20.0281 78.4522 19.9464 78.1782 19.9464 77.8742C19.9464 77.5702 20.0237 77.2962 20.1785 77.0522C20.3376 76.8082 20.552 76.6142 20.8217 76.4702C21.0914 76.3262 21.392 76.2542 21.7236 76.2542C22.0552 76.2542 22.3492 76.3282 22.6056 76.4762C22.8621 76.6242 23.0632 76.8242 23.2091 77.0762C23.3594 77.3282 23.4346 77.6142 23.4346 77.9342V78.1502H20.8748C20.9146 78.2742 20.9787 78.3862 21.0671 78.4862C21.1599 78.5862 21.2727 78.6642 21.4053 78.7202C21.5424 78.7762 21.6883 78.8042 21.843 78.8042C21.9977 78.8042 22.1392 78.7822 22.2674 78.7382C22.4001 78.6942 22.5128 78.6322 22.6056 78.5522L23.2025 79.0442C22.9903 79.2002 22.7714 79.3142 22.546 79.3862C22.3249 79.4582 22.0751 79.4942 21.7966 79.4942ZM20.8615 77.5622H22.5393C22.5084 77.4382 22.4509 77.3302 22.3669 77.2382C22.2873 77.1422 22.1901 77.0682 22.0751 77.0162C21.9646 76.9602 21.8408 76.9322 21.7037 76.9322C21.5623 76.9322 21.434 76.9582 21.3191 77.0102C21.2042 77.0622 21.1069 77.1362 21.0273 77.2322C20.9521 77.3242 20.8969 77.4342 20.8615 77.5622Z" fill="black"/>
<path d="M18.9717 79.4821C18.5871 79.4821 18.2953 79.4041 18.0963 79.2481C17.9018 79.0881 17.8046 78.8561 17.8046 78.5521V76.9921H17.095V76.3081H17.8046V75.5101L18.7131 75.3241V76.3081H19.7012V76.9921H18.7131V78.3841C18.7131 78.5281 18.7485 78.6321 18.8192 78.6961C18.8899 78.7561 19.0137 78.7861 19.1906 78.7861C19.279 78.7861 19.3586 78.7821 19.4293 78.7741C19.5045 78.7621 19.5863 78.7421 19.6747 78.7141V79.3921C19.5818 79.4201 19.4647 79.4421 19.3232 79.4581C19.1861 79.4741 19.069 79.4821 18.9717 79.4821Z" fill="black"/>
<path d="M15.4341 79.4942C15.1158 79.4942 14.8218 79.4582 14.5521 79.3862C14.2824 79.3102 14.0481 79.2022 13.8491 79.0622L14.3001 78.5162C14.499 78.6362 14.6891 78.7262 14.8704 78.7862C15.0561 78.8462 15.2396 78.8762 15.4208 78.8762C15.6242 78.8762 15.7856 78.8462 15.9049 78.7862C16.0287 78.7222 16.0906 78.6402 16.0906 78.5402C16.0906 78.4602 16.0552 78.3962 15.9845 78.3482C15.9182 78.3002 15.8099 78.2662 15.6596 78.2462L14.9964 78.1562C14.6516 78.1082 14.3907 78.0082 14.2139 77.8562C14.037 77.7002 13.9486 77.4962 13.9486 77.2442C13.9486 77.0402 14.0061 76.8662 14.121 76.7222C14.2404 76.5742 14.4062 76.4602 14.6184 76.3802C14.835 76.2962 15.0914 76.2542 15.3877 76.2542C15.6397 76.2542 15.885 76.2862 16.1238 76.3502C16.3669 76.4142 16.5946 76.5122 16.8068 76.6442L16.3691 77.1782C16.179 77.0702 15.9978 76.9922 15.8254 76.9442C15.6529 76.8962 15.4783 76.8722 15.3015 76.8722C15.1379 76.8722 15.0052 76.9002 14.9036 76.9562C14.8063 77.0122 14.7577 77.0862 14.7577 77.1782C14.7577 77.2622 14.793 77.3282 14.8638 77.3762C14.9345 77.4242 15.0561 77.4582 15.2285 77.4782L15.885 77.5682C16.2299 77.6122 16.4929 77.7122 16.6742 77.8682C16.8555 78.0202 16.9461 78.2182 16.9461 78.4622C16.9461 78.6622 16.8798 78.8402 16.7471 78.9962C16.6145 79.1482 16.4355 79.2702 16.21 79.3622C15.9845 79.4502 15.7259 79.4942 15.4341 79.4942Z" fill="black"/>
<path d="M12.5218 79.4341V76.3081H13.4304V79.4341H12.5218ZM12.9728 75.9361C12.8313 75.9361 12.7097 75.8901 12.608 75.7981C12.5063 75.7061 12.4555 75.5961 12.4555 75.4681C12.4555 75.3361 12.5063 75.2261 12.608 75.1381C12.7097 75.0461 12.8313 75.0001 12.9728 75.0001C13.1187 75.0001 13.2402 75.0461 13.3375 75.1381C13.4392 75.2261 13.49 75.3361 13.49 75.4681C13.49 75.5961 13.4392 75.7061 13.3375 75.7981C13.2402 75.8901 13.1187 75.9361 12.9728 75.9361Z" fill="black"/>
<path d="M10.0558 79.4942C9.68002 79.4942 9.31307 79.4322 8.95496 79.3082C8.59685 79.1802 8.27853 79.0002 8 78.7682L8.55043 78.1442C8.82011 78.3602 9.07875 78.5162 9.32633 78.6122C9.57833 78.7082 9.8436 78.7562 10.1221 78.7562C10.3167 78.7562 10.4847 78.7362 10.6261 78.6962C10.7676 78.6522 10.8759 78.5902 10.9511 78.5102C11.0307 78.4302 11.0705 78.3362 11.0705 78.2282C11.0705 78.0842 11.013 77.9742 10.898 77.8982C10.7831 77.8182 10.5863 77.7562 10.3078 77.7122L9.38601 77.5682C8.99254 77.5082 8.6919 77.3822 8.48411 77.1902C8.28074 76.9982 8.17905 76.7502 8.17905 76.4462C8.17905 76.1862 8.252 75.9602 8.3979 75.7682C8.54822 75.5762 8.75822 75.4302 9.0279 75.3302C9.30201 75.2262 9.62696 75.1742 10.0028 75.1742C10.3432 75.1742 10.6814 75.2262 11.0174 75.3302C11.3578 75.4342 11.6585 75.5782 11.9193 75.7622L11.402 76.4102C10.9157 76.0742 10.4272 75.9062 9.93644 75.9062C9.76402 75.9062 9.6137 75.9262 9.48549 75.9662C9.35728 76.0062 9.2578 76.0622 9.18706 76.1342C9.12075 76.2022 9.08759 76.2842 9.08759 76.3802C9.08759 76.5082 9.13843 76.6082 9.24012 76.6802C9.3418 76.7482 9.51201 76.8002 9.75075 76.8362L10.6261 76.9682C11.0903 77.0362 11.4374 77.1702 11.6673 77.3702C11.8972 77.5662 12.0121 77.8262 12.0121 78.1502C12.0121 78.4222 11.9326 78.6602 11.7734 78.8642C11.6142 79.0642 11.3866 79.2202 11.0903 79.3322C10.7986 79.4402 10.4537 79.4942 10.0558 79.4942Z" fill="black"/>
</svg>
