<svg width="202" height="86" viewBox="0 0 202 86" fill="none" xmlns="http://www.w3.org/2000/svg">
<path d="M70.144 43.4383H79.345V75.1698H70.5569V71.513C68.2566 74.2851 64.8947 75.6417 60.6481 75.6417C51.6831 75.6417 44.7823 69.2718 44.7823 59.3041C44.7823 49.3363 51.6831 42.9664 60.6481 42.9664C64.5408 42.9664 67.8437 44.205 70.144 46.8002V43.4383ZM62.2406 68.0922C66.7821 68.0922 70.3209 64.7892 70.3209 59.3041C70.3209 53.8189 66.7821 50.5159 62.2406 50.5159C57.6401 50.5159 54.1013 53.8189 54.1013 59.3041C54.1013 64.7892 57.6401 68.0922 62.2406 68.0922Z" fill="#1A274A"/>
<path d="M107.15 42.9664C114.641 42.9664 120.303 47.331 120.303 57.0038V75.1698H111.102V58.4193C111.102 53.288 108.743 50.9288 104.673 50.9288C100.249 50.9288 97.0645 53.6419 97.0645 59.481V75.1698H87.8635V43.4383H96.6516V47.154C99.1288 44.4409 102.845 42.9664 107.15 42.9664Z" fill="#1A274A"/>
<path d="M152.109 31.4062H161.31V75.1698H152.522V71.513C150.222 74.2851 146.86 75.6417 142.613 75.6417C133.648 75.6417 126.747 69.2718 126.747 59.3041C126.747 49.3363 133.648 42.9664 142.613 42.9664C146.506 42.9664 149.809 44.205 152.109 46.8002V31.4062ZM144.206 68.0922C148.747 68.0922 152.286 64.7892 152.286 59.3041C152.286 53.8189 148.747 50.5159 144.206 50.5159C139.605 50.5159 136.066 53.8189 136.066 59.3041C136.066 64.7892 139.605 68.0922 144.206 68.0922Z" fill="#1A274A"/>
<path d="M185.81 68.2691C189.171 68.2691 191.59 67.2664 193.772 65.2021L198.667 70.5104C195.718 73.8723 191.295 75.6417 185.574 75.6417C174.603 75.6417 167.467 68.741 167.467 59.3041C167.467 49.8082 174.662 42.9664 184.453 42.9664C193.418 42.9664 200.791 48.8645 200.85 59.0091L177.375 63.5507C178.732 66.6766 181.681 68.2691 185.81 68.2691ZM184.453 49.9261C179.853 49.9261 176.668 52.9931 176.491 58.3604L191.944 55.3523C191.059 52.1084 188.287 49.9261 184.453 49.9261Z" fill="#1A274A"/>
<path d="M15.4606 83.2654C14.6599 83.2654 13.8519 83.0418 13.4047 82.7165L13.8014 81.8897C14.227 82.1811 14.8619 82.3844 15.4678 82.3844C16.1603 82.3844 16.4417 82.1676 16.4417 81.8762C16.4417 80.9884 13.5057 81.5983 13.5057 79.8363C13.5057 79.0299 14.1982 78.359 15.6337 78.359C16.2685 78.359 16.9178 78.5013 17.3867 78.7791L17.026 79.6127C16.5571 79.362 16.0738 79.24 15.6265 79.24C14.934 79.24 14.6671 79.4839 14.6671 79.7821C14.6671 80.6563 17.6031 80.0532 17.6031 81.7949C17.6031 82.5878 16.9033 83.2654 15.4606 83.2654Z" fill="#1A274A"/>
<path d="M18.3078 79.0299C17.8894 79.0299 17.6081 78.7724 17.6081 78.4403C17.6081 78.1082 17.8894 77.8507 18.3078 77.8507C18.7262 77.8507 19.0076 78.0947 19.0076 78.42C19.0076 78.7724 18.7262 79.0299 18.3078 79.0299ZM17.7451 83.1841V79.5382H18.8705V83.1841H17.7451Z" fill="#1A274A"/>
<path d="M20.6435 83.2383C19.987 83.2383 19.3234 83.0689 18.9627 82.8453L19.3378 82.0863C19.6841 82.2963 20.2107 82.4387 20.6868 82.4387C21.2062 82.4387 21.4009 82.3099 21.4009 82.1066C21.4009 81.5102 19.0565 82.1201 19.0565 80.6631C19.0565 79.9719 19.7201 79.4839 20.8527 79.4839C21.3865 79.4839 21.978 79.5991 22.3459 79.8025L21.9708 80.5547C21.5885 80.3514 21.2062 80.2836 20.8527 80.2836C20.3477 80.2836 20.1313 80.4327 20.1313 80.6225C20.1313 81.2459 22.4758 80.6428 22.4758 82.0795C22.4758 82.7572 21.8049 83.2383 20.6435 83.2383Z" fill="#1A274A"/>
<path d="M24.6345 82.2625L24.9302 83.0079C24.6994 83.1638 24.3604 83.2383 24.0213 83.2383C23.098 83.2383 22.5714 82.7978 22.5714 81.9304V78.7317H23.6967V79.6195H24.6561V80.4327H23.6967V81.9168C23.6967 82.2286 23.8698 82.398 24.1728 82.398C24.3387 82.398 24.5046 82.3506 24.6345 82.2625Z" fill="#1A274A"/>
<path d="M26.8239 82.3912C27.2351 82.3912 27.5309 82.276 27.7978 82.0388L28.3965 82.6487C28.0358 83.035 27.4948 83.2383 26.7951 83.2383C25.4533 83.2383 24.5804 82.4454 24.5804 81.3611C24.5804 80.2701 25.4605 79.4839 26.658 79.4839C27.7545 79.4839 28.6562 80.1616 28.6634 81.3273L25.7923 81.8491C25.9583 82.2082 26.3189 82.3912 26.8239 82.3912ZM26.658 80.2836C26.0953 80.2836 25.7058 80.636 25.6841 81.2527L27.5741 80.9071C27.4659 80.5344 27.1269 80.2836 26.658 80.2836Z" fill="#1A274A"/>
<path d="M33.813 79.4839C34.7364 79.4839 35.4 79.9854 35.4 81.0968V83.1841H34.2747V81.2595C34.2747 80.6699 33.9933 80.3988 33.5389 80.3988C33.0339 80.3988 32.6804 80.7038 32.6804 81.3544V83.1841H31.5551V81.2595C31.5551 80.6699 31.2882 80.3988 30.8193 80.3988C30.3216 80.3988 29.9681 80.7038 29.9681 81.3544V83.1841H28.8427V79.5382H29.9176V79.9583C30.2061 79.6466 30.639 79.4839 31.1367 79.4839C31.6777 79.4839 32.1394 79.6805 32.4135 80.0803C32.7237 79.7076 33.2287 79.4839 33.813 79.4839Z" fill="#1A274A"/>
<path d="M39.981 79.3213H39.1081V82.3031H39.981V83.1841H37.0594V82.3031H37.9395V79.3213H37.0594V78.4403H39.981V79.3213Z" fill="#1A274A"/>
<path d="M42.5664 79.4839C43.4825 79.4839 44.175 79.9854 44.175 81.0968V83.1841H43.0497V81.2595C43.0497 80.6699 42.7611 80.3988 42.2634 80.3988C41.7223 80.3988 41.3328 80.7106 41.3328 81.3815V83.1841H40.2075V79.5382H41.2823V79.9651C41.5853 79.6534 42.0398 79.4839 42.5664 79.4839Z" fill="#1A274A"/>
<path d="M45.7145 79.4636V79.6195H46.71V80.4327H45.7433V83.1841H44.618V79.4568C44.618 78.6368 45.1518 78.1015 46.1184 78.1015C46.4431 78.1015 46.7677 78.1624 46.9769 78.298L46.6811 79.0638C46.5585 78.9824 46.3998 78.935 46.2267 78.935C45.8948 78.935 45.7145 79.1044 45.7145 79.4636Z" fill="#1A274A"/>
<path d="M48.4941 83.2383C47.2606 83.2383 46.3589 82.459 46.3589 81.3611C46.3589 80.2633 47.2606 79.4839 48.4941 79.4839C49.7277 79.4839 50.6222 80.2633 50.6222 81.3611C50.6222 82.459 49.7277 83.2383 48.4941 83.2383ZM48.4941 82.3709C49.0568 82.3709 49.4824 81.9914 49.4824 81.3611C49.4824 80.7309 49.0568 80.3514 48.4941 80.3514C47.9315 80.3514 47.4986 80.7309 47.4986 81.3611C47.4986 81.9914 47.9315 82.3709 48.4941 82.3709Z" fill="#1A274A"/>
<path d="M51.8721 80.0193C52.1463 79.6669 52.6079 79.4839 53.2067 79.4839V80.4598C53.1129 80.453 53.0408 80.4463 52.9542 80.4463C52.3338 80.4463 51.9226 80.7648 51.9226 81.4628V83.1841H50.7973V79.5382H51.8721V80.0193Z" fill="#1A274A"/>
<path d="M58.269 79.4839C59.1923 79.4839 59.856 79.9854 59.856 81.0968V83.1841H58.7306V81.2595C58.7306 80.6699 58.4493 80.3988 57.9948 80.3988C57.4899 80.3988 57.1364 80.7038 57.1364 81.3544V83.1841H56.0111V81.2595C56.0111 80.6699 55.7442 80.3988 55.2753 80.3988C54.7775 80.3988 54.424 80.7038 54.424 81.3544V83.1841H53.2987V79.5382H54.3735V79.9583C54.6621 79.6466 55.0949 79.4839 55.5927 79.4839C56.1337 79.4839 56.5954 79.6805 56.8695 80.0803C57.1797 79.7076 57.6846 79.4839 58.269 79.4839Z" fill="#1A274A"/>
<path d="M63.1432 79.5382H64.2685V83.1841H63.1937V82.764C62.9123 83.0825 62.5012 83.2383 61.9818 83.2383C60.8853 83.2383 60.0413 82.5064 60.0413 81.3611C60.0413 80.2158 60.8853 79.4839 61.9818 79.4839C62.4579 79.4839 62.8619 79.6263 63.1432 79.9244V79.5382ZM62.1765 82.3709C62.732 82.3709 63.1648 81.9914 63.1648 81.3611C63.1648 80.7309 62.732 80.3514 62.1765 80.3514C61.6139 80.3514 61.181 80.7309 61.181 81.3611C61.181 81.9914 61.6139 82.3709 62.1765 82.3709Z" fill="#1A274A"/>
<path d="M66.039 83.2383C65.3825 83.2383 64.7189 83.0689 64.3582 82.8453L64.7333 82.0863C65.0796 82.2963 65.6062 82.4387 66.0823 82.4387C66.6017 82.4387 66.7964 82.3099 66.7964 82.1066C66.7964 81.5102 64.452 82.1201 64.452 80.6631C64.452 79.9719 65.1156 79.4839 66.2482 79.4839C66.782 79.4839 67.3735 79.5991 67.7414 79.8025L67.3663 80.5547C66.984 80.3514 66.6017 80.2836 66.2482 80.2836C65.7432 80.2836 65.5268 80.4327 65.5268 80.6225C65.5268 81.2459 67.8713 80.6428 67.8713 82.0795C67.8713 82.7572 67.2004 83.2383 66.039 83.2383Z" fill="#1A274A"/>
<path d="M68.5512 79.0299C68.1328 79.0299 67.8514 78.7724 67.8514 78.4403C67.8514 78.1082 68.1328 77.8507 68.5512 77.8507C68.9696 77.8507 69.2509 78.0947 69.2509 78.42C69.2509 78.7724 68.9696 79.0299 68.5512 79.0299ZM67.9885 83.1841V79.5382H69.1138V83.1841H67.9885Z" fill="#1A274A"/>
<path d="M73.3121 78.4403C74.6611 78.4403 75.5051 79.0977 75.5051 80.1616C75.5051 81.2188 74.6611 81.8762 73.3121 81.8762H72.295V83.1841H71.1264V78.4403H73.3121ZM73.2472 80.9816C73.9614 80.9816 74.322 80.6767 74.322 80.1616C74.322 79.6398 73.9614 79.3348 73.2472 79.3348H72.295V80.9816H73.2472Z" fill="#1A274A"/>
<path d="M77.6308 82.3912C78.042 82.3912 78.3378 82.276 78.6047 82.0388L79.2034 82.6487C78.8428 83.035 78.3017 83.2383 77.602 83.2383C76.2602 83.2383 75.3874 82.4454 75.3874 81.3611C75.3874 80.2701 76.2674 79.4839 77.4649 79.4839C78.5614 79.4839 79.4631 80.1616 79.4704 81.3273L76.5993 81.8491C76.7652 82.2082 77.1259 82.3912 77.6308 82.3912ZM77.4649 80.2836C76.9023 80.2836 76.5127 80.636 76.4911 81.2527L78.3811 80.9071C78.2729 80.5344 77.9338 80.2836 77.4649 80.2836Z" fill="#1A274A"/>
<path d="M82.0086 79.4839C82.9247 79.4839 83.6172 79.9854 83.6172 81.0968V83.1841H82.4919V81.2595C82.4919 80.6699 82.2033 80.3988 81.7056 80.3988C81.1646 80.3988 80.775 80.7106 80.775 81.3815V83.1841H79.6497V79.5382H80.7245V79.9651C81.0275 79.6534 81.482 79.4839 82.0086 79.4839Z" fill="#1A274A"/>
<path d="M87.0385 79.5382H88.1061V82.5742C88.1061 83.9296 87.327 84.5531 85.9275 84.5531C85.1917 84.5531 84.4776 84.3836 84.0231 84.0516L84.4704 83.2926C84.8022 83.5433 85.3432 83.7059 85.841 83.7059C86.6345 83.7059 86.9807 83.3671 86.9807 82.7097V82.5539C86.685 82.8588 86.2594 83.0079 85.7544 83.0079C84.6796 83.0079 83.8139 82.3099 83.8139 81.2459C83.8139 80.182 84.6796 79.4839 85.7544 79.4839C86.2954 79.4839 86.7427 79.6534 87.0385 80.0058V79.5382ZM85.978 82.1405C86.5696 82.1405 86.9952 81.7813 86.9952 81.2459C86.9952 80.7106 86.5696 80.3514 85.978 80.3514C85.3865 80.3514 84.9537 80.7106 84.9537 81.2459C84.9537 81.7813 85.3865 82.1405 85.978 82.1405Z" fill="#1A274A"/>
<path d="M90.5313 82.3912C90.9425 82.3912 91.2382 82.276 91.5052 82.0388L92.1039 82.6487C91.7432 83.035 91.2022 83.2383 90.5024 83.2383C89.1607 83.2383 88.2878 82.4454 88.2878 81.3611C88.2878 80.2701 89.1679 79.4839 90.3654 79.4839C91.4619 79.4839 92.3636 80.1616 92.3708 81.3273L89.4997 81.8491C89.6657 82.2082 90.0263 82.3912 90.5313 82.3912ZM90.3654 80.2836C89.8027 80.2836 89.4132 80.636 89.3915 81.2527L91.2815 80.9071C91.1733 80.5344 90.8343 80.2836 90.3654 80.2836Z" fill="#1A274A"/>
<path d="M94.909 79.4839C95.8252 79.4839 96.5177 79.9854 96.5177 81.0968V83.1841H95.3923V81.2595C95.3923 80.6699 95.1038 80.3988 94.606 80.3988C94.065 80.3988 93.6755 80.7106 93.6755 81.3815V83.1841H92.5501V79.5382H93.625V79.9651C93.928 79.6534 94.3824 79.4839 94.909 79.4839Z" fill="#1A274A"/>
<path d="M99.8307 78.1557H100.956V83.1841H99.8812V82.764C99.5999 83.0825 99.1887 83.2383 98.6693 83.2383C97.5728 83.2383 96.7288 82.5064 96.7288 81.3611C96.7288 80.2158 97.5728 79.4839 98.6693 79.4839C99.1454 79.4839 99.5494 79.6263 99.8307 79.9244V78.1557ZM98.8641 82.3709C99.4195 82.3709 99.8523 81.9914 99.8523 81.3611C99.8523 80.7309 99.4195 80.3514 98.8641 80.3514C98.3014 80.3514 97.8686 80.7309 97.8686 81.3611C97.8686 81.9914 98.3014 82.3709 98.8641 82.3709Z" fill="#1A274A"/>
<path d="M104.234 79.5382H105.359V83.1841H104.284V82.764C104.003 83.0825 103.592 83.2383 103.072 83.2383C101.976 83.2383 101.132 82.5064 101.132 81.3611C101.132 80.2158 101.976 79.4839 103.072 79.4839C103.549 79.4839 103.953 79.6263 104.234 79.9244V79.5382ZM103.267 82.3709C103.823 82.3709 104.255 81.9914 104.255 81.3611C104.255 80.7309 103.823 80.3514 103.267 80.3514C102.705 80.3514 102.272 80.7309 102.272 81.3611C102.272 81.9914 102.705 82.3709 103.267 82.3709Z" fill="#1A274A"/>
<path d="M107.216 83.2383C106.343 83.2383 105.824 82.7911 105.824 81.9778V78.1557H106.949V81.9168C106.949 82.2286 107.122 82.398 107.433 82.398C107.555 82.398 107.685 82.3641 107.75 82.3302L107.801 83.1502C107.606 83.2112 107.411 83.2383 107.216 83.2383Z" fill="#1A274A"/>
<path d="M108.339 79.0299C107.92 79.0299 107.639 78.7724 107.639 78.4403C107.639 78.1082 107.92 77.8507 108.339 77.8507C108.757 77.8507 109.038 78.0947 109.038 78.42C109.038 78.7724 108.757 79.0299 108.339 79.0299ZM107.776 83.1841V79.5382H108.901V83.1841H107.776Z" fill="#1A274A"/>
<path d="M112.182 79.5382H113.307V83.1841H112.232V82.764C111.951 83.0825 111.54 83.2383 111.021 83.2383C109.924 83.2383 109.08 82.5064 109.08 81.3611C109.08 80.2158 109.924 79.4839 111.021 79.4839C111.497 79.4839 111.901 79.6263 112.182 79.9244V79.5382ZM111.215 82.3709C111.771 82.3709 112.204 81.9914 112.204 81.3611C112.204 80.7309 111.771 80.3514 111.215 80.3514C110.653 80.3514 110.22 80.7309 110.22 81.3611C110.22 81.9914 110.653 82.3709 111.215 82.3709Z" fill="#1A274A"/>
<path d="M116.131 79.4839C117.047 79.4839 117.74 79.9854 117.74 81.0968V83.1841H116.614V81.2595C116.614 80.6699 116.326 80.3988 115.828 80.3988C115.287 80.3988 114.897 80.7106 114.897 81.3815V83.1841H113.772V79.5382H114.847V79.9651C115.15 79.6534 115.604 79.4839 116.131 79.4839Z" fill="#1A274A"/>
<path d="M125.492 78.359C126.667 78.359 127.382 79.0163 127.382 80.2701V83.1841H126.213V80.3039C126.213 79.6127 125.78 79.2942 125.203 79.2942C124.568 79.2942 124.114 79.6195 124.114 80.3717V83.1841H122.945V80.3039C122.945 79.6127 122.556 79.2942 121.978 79.2942C121.358 79.2942 120.896 79.6195 120.896 80.3717V83.1841H119.728V78.4403H120.86V79.0231C121.163 78.6029 121.683 78.359 122.354 78.359C123.053 78.359 123.58 78.6097 123.861 79.057C124.207 78.6029 124.799 78.359 125.492 78.359Z" fill="#1A274A"/>
<path d="M129.724 83.2383C128.49 83.2383 127.589 82.459 127.589 81.3611C127.589 80.2633 128.49 79.4839 129.724 79.4839C130.957 79.4839 131.852 80.2633 131.852 81.3611C131.852 82.459 130.957 83.2383 129.724 83.2383ZM129.724 82.3709C130.287 82.3709 130.712 81.9914 130.712 81.3611C130.712 80.7309 130.287 80.3514 129.724 80.3514C129.161 80.3514 128.728 80.7309 128.728 81.3611C128.728 81.9914 129.161 82.3709 129.724 82.3709Z" fill="#1A274A"/>
<path d="M134.386 79.4839C135.302 79.4839 135.995 79.9854 135.995 81.0968V83.1841H134.869V81.2595C134.869 80.6699 134.581 80.3988 134.083 80.3988C133.542 80.3988 133.152 80.7106 133.152 81.3815V83.1841H132.027V79.5382H133.102V79.9651C133.405 79.6534 133.859 79.4839 134.386 79.4839Z" fill="#1A274A"/>
<path d="M137 79.0299C136.582 79.0299 136.3 78.7724 136.3 78.4403C136.3 78.1082 136.582 77.8507 137 77.8507C137.419 77.8507 137.7 78.0947 137.7 78.42C137.7 78.7724 137.419 79.0299 137 79.0299ZM136.438 83.1841V79.5382H137.563V83.1841H136.438Z" fill="#1A274A"/>
<path d="M140.072 82.2625L140.367 83.0079C140.137 83.1638 139.798 83.2383 139.458 83.2383C138.535 83.2383 138.009 82.7978 138.009 81.9304V78.7317H139.134V79.6195H140.093V80.4327H139.134V81.9168C139.134 82.2286 139.307 82.398 139.61 82.398C139.776 82.398 139.942 82.3506 140.072 82.2625Z" fill="#1A274A"/>
<path d="M142.153 83.2383C140.919 83.2383 140.018 82.459 140.018 81.3611C140.018 80.2633 140.919 79.4839 142.153 79.4839C143.386 79.4839 144.281 80.2633 144.281 81.3611C144.281 82.459 143.386 83.2383 142.153 83.2383ZM142.153 82.3709C142.716 82.3709 143.141 81.9914 143.141 81.3611C143.141 80.7309 142.716 80.3514 142.153 80.3514C141.59 80.3514 141.157 80.7309 141.157 81.3611C141.157 81.9914 141.59 82.3709 142.153 82.3709Z" fill="#1A274A"/>
<path d="M145.531 80.0193C145.805 79.6669 146.267 79.4839 146.865 79.4839V80.4598C146.772 80.453 146.7 80.4463 146.613 80.4463C145.993 80.4463 145.581 80.7648 145.581 81.4628V83.1841H144.456V79.5382H145.531V80.0193Z" fill="#1A274A"/>
<path d="M147.52 79.0299C147.102 79.0299 146.82 78.7724 146.82 78.4403C146.82 78.1082 147.102 77.8507 147.52 77.8507C147.939 77.8507 148.22 78.0947 148.22 78.42C148.22 78.7724 147.939 79.0299 147.52 79.0299ZM146.957 83.1841V79.5382H148.083V83.1841H146.957Z" fill="#1A274A"/>
<path d="M150.909 79.4839C151.825 79.4839 152.518 79.9854 152.518 81.0968V83.1841H151.392V81.2595C151.392 80.6699 151.104 80.3988 150.606 80.3988C150.065 80.3988 149.675 80.7106 149.675 81.3815V83.1841H148.55V79.5382H149.625V79.9651C149.928 79.6534 150.382 79.4839 150.909 79.4839Z" fill="#1A274A"/>
<path d="M155.939 79.5382H157.007V82.5742C157.007 83.9296 156.227 84.5531 154.828 84.5531C154.092 84.5531 153.378 84.3836 152.924 84.0516L153.371 83.2926C153.703 83.5433 154.244 83.7059 154.741 83.7059C155.535 83.7059 155.881 83.3671 155.881 82.7097V82.5539C155.585 82.8588 155.16 83.0079 154.655 83.0079C153.58 83.0079 152.714 82.3099 152.714 81.2459C152.714 80.182 153.58 79.4839 154.655 79.4839C155.196 79.4839 155.643 79.6534 155.939 80.0058V79.5382ZM154.878 82.1405C155.47 82.1405 155.896 81.7813 155.896 81.2459C155.896 80.7106 155.47 80.3514 154.878 80.3514C154.287 80.3514 153.854 80.7106 153.854 81.2459C153.854 81.7813 154.287 82.1405 154.878 82.1405Z" fill="#1A274A"/>
<path d="M161.77 78.1557H162.896V83.1841H161.821V82.764C161.54 83.0825 161.128 83.2383 160.609 83.2383C159.513 83.2383 158.669 82.5064 158.669 81.3611C158.669 80.2158 159.513 79.4839 160.609 79.4839C161.085 79.4839 161.489 79.6263 161.77 79.9244V78.1557ZM160.804 82.3709C161.359 82.3709 161.792 81.9914 161.792 81.3611C161.792 80.7309 161.359 80.3514 160.804 80.3514C160.241 80.3514 159.808 80.7309 159.808 81.3611C159.808 81.9914 160.241 82.3709 160.804 82.3709Z" fill="#1A274A"/>
<path d="M166.174 79.5382H167.299V83.1841H166.224V82.764C165.943 83.0825 165.532 83.2383 165.012 83.2383C163.916 83.2383 163.072 82.5064 163.072 81.3611C163.072 80.2158 163.916 79.4839 165.012 79.4839C165.488 79.4839 165.892 79.6263 166.174 79.9244V79.5382ZM165.207 82.3709C165.762 82.3709 166.195 81.9914 166.195 81.3611C166.195 80.7309 165.762 80.3514 165.207 80.3514C164.644 80.3514 164.211 80.7309 164.211 81.3611C164.211 81.9914 164.644 82.3709 165.207 82.3709Z" fill="#1A274A"/>
<path d="M170.123 79.4839C171.039 79.4839 171.731 79.9854 171.731 81.0968V83.1841H170.606V81.2595C170.606 80.6699 170.317 80.3988 169.82 80.3988C169.279 80.3988 168.889 80.7106 168.889 81.3815V83.1841H167.764V79.5382H168.839V79.9651C169.142 79.6534 169.596 79.4839 170.123 79.4839Z" fill="#1A274A"/>
<path d="M177.485 81.9507L177.846 82.7775C177.362 83.0825 176.598 83.2654 175.783 83.2654C174.217 83.2654 173.402 82.6691 173.402 81.8491C173.402 81.334 173.734 80.9342 174.239 80.7444C173.842 80.5479 173.618 80.1887 173.618 79.7618C173.618 79.0163 174.34 78.359 175.891 78.359C176.554 78.359 177.204 78.4877 177.665 78.6978L177.341 79.5382C176.879 79.3348 176.41 79.2467 175.934 79.2467C175.155 79.2467 174.801 79.4907 174.801 79.8363C174.801 80.1616 175.047 80.3514 175.573 80.3514H176.951V81.2188H175.501C174.924 81.2188 174.585 81.4086 174.585 81.7745C174.585 82.1337 174.96 82.3777 175.833 82.3777C176.425 82.3777 177.067 82.2218 177.485 81.9507Z" fill="#1A274A"/>
<path d="M180.56 79.5382H181.642L180.005 83.1841H178.843L177.213 79.5382H178.374L179.449 82.0185L180.56 79.5382Z" fill="#1A274A"/>
<path d="M184.232 79.5382H185.357V83.1841H184.282V82.764C184.001 83.0825 183.59 83.2383 183.07 83.2383C181.974 83.2383 181.13 82.5064 181.13 81.3611C181.13 80.2158 181.974 79.4839 183.07 79.4839C183.547 79.4839 183.951 79.6263 184.232 79.9244V79.5382ZM183.265 82.3709C183.821 82.3709 184.254 81.9914 184.254 81.3611C184.254 80.7309 183.821 80.3514 183.265 80.3514C182.703 80.3514 182.27 80.7309 182.27 81.3611C182.27 81.9914 182.703 82.3709 183.265 82.3709Z" fill="#1A274A"/>
<path d="M187.214 83.2383C186.341 83.2383 185.822 82.7911 185.822 81.9778V78.1557H186.947V81.9168C186.947 82.2286 187.12 82.398 187.431 82.398C187.553 82.398 187.683 82.3641 187.748 82.3302L187.799 83.1502C187.604 83.2112 187.409 83.2383 187.214 83.2383Z" fill="#1A274A"/>
<path d="M190.558 79.5382H191.684V83.1841H190.616V82.7504C190.32 83.0689 189.888 83.2383 189.411 83.2383C188.438 83.2383 187.752 82.7233 187.752 81.5983V79.5382H188.878V81.4425C188.878 82.0524 189.166 82.3235 189.664 82.3235C190.183 82.3235 190.558 82.0117 190.558 81.3408V79.5382Z" fill="#1A274A"/>
<path d="M194.963 79.5382H196.088V83.1841H195.013V82.764C194.732 83.0825 194.321 83.2383 193.801 83.2383C192.705 83.2383 191.861 82.5064 191.861 81.3611C191.861 80.2158 192.705 79.4839 193.801 79.4839C194.277 79.4839 194.681 79.6263 194.963 79.9244V79.5382ZM193.996 82.3709C194.551 82.3709 194.984 81.9914 194.984 81.3611C194.984 80.7309 194.551 80.3514 193.996 80.3514C193.433 80.3514 193 80.7309 193 81.3611C193 81.9914 193.433 82.3709 193.996 82.3709Z" fill="#1A274A"/>
<path d="M197.858 83.2383C197.202 83.2383 196.538 83.0689 196.178 82.8453L196.553 82.0863C196.899 82.2963 197.426 82.4387 197.902 82.4387C198.421 82.4387 198.616 82.3099 198.616 82.1066C198.616 81.5102 196.271 82.1201 196.271 80.6631C196.271 79.9719 196.935 79.4839 198.068 79.4839C198.601 79.4839 199.193 79.5991 199.561 79.8025L199.186 80.5547C198.803 80.3514 198.421 80.2836 198.068 80.2836C197.563 80.2836 197.346 80.4327 197.346 80.6225C197.346 81.2459 199.691 80.6428 199.691 82.0795C199.691 82.7572 199.02 83.2383 197.858 83.2383Z" fill="#1A274A"/>
<path d="M200.371 79.0299C199.952 79.0299 199.671 78.7724 199.671 78.4403C199.671 78.1082 199.952 77.8507 200.371 77.8507C200.789 77.8507 201.07 78.0947 201.07 78.42C201.07 78.7724 200.789 79.0299 200.371 79.0299ZM199.808 83.1841V79.5382H200.933V83.1841H199.808Z" fill="#1A274A"/>
<path d="M28.1868 44.9182C28.6996 45.1129 29.1997 45.319 29.6872 45.5366C31.5355 46.3617 33.1362 47.3766 34.4893 48.5813C35.8425 49.7859 36.8904 51.2051 37.6329 52.8388C38.392 54.4725 38.7798 56.3454 38.7963 58.4577V13.5082H36.1868C31.7686 13.5082 28.1868 17.0899 28.1868 21.5082V23.0949C28.4943 23.2166 28.7964 23.3456 29.0932 23.4817C31.915 24.7689 34.1098 26.5594 35.6775 28.8531C37.2451 31.1469 38.0537 33.8037 38.1032 36.8236H28.1868V44.9182Z" fill="#F4BE2A"/>
<path fill-rule="evenodd" clip-rule="evenodd" d="M38.1032 36.8236H28.1868V23.0949C28.4943 23.2166 28.7964 23.3456 29.0932 23.4817C31.915 24.7689 34.1098 26.5594 35.6775 28.8531C37.2451 31.1469 38.0537 33.8037 38.1032 36.8236ZM28.1868 44.9182C28.6996 45.1129 29.1997 45.319 29.6872 45.5366C31.5355 46.3617 33.1362 47.3766 34.4893 48.5813C35.8425 49.7859 36.8904 51.2051 37.6329 52.8388C38.392 54.4725 38.7798 56.3454 38.7963 58.4577H28.1868V44.9182Z" fill="#F4BE2A"/>
<path d="M10.7607 36.8979H0.0331093V37.0463C0.0493928 40.7226 1.27879 43.6517 3.7213 45.8337C5.56747 47.4829 7.91393 48.8063 10.7607 49.8038V36.8979Z" fill="#E84D8A"/>
<path d="M35.6774 28.8531C34.1097 26.5594 31.9149 24.7689 29.0931 23.4818C28.7963 23.3456 28.4942 23.2166 28.1868 23.0949V29.9592V36.8236H38.8736C38.8241 33.8037 37.2451 31.1469 35.6774 28.8531Z" fill="#E84D8A"/>
<path fill-rule="evenodd" clip-rule="evenodd" d="M25.2811 32.17C26.7828 33.2757 27.9887 34.8269 28.1868 36.8236V29.9592V23.0949C25.5876 22.0656 22.6059 21.551 19.2414 21.551C15.545 21.551 12.2446 22.1946 9.34023 23.4818C6.43588 24.7689 4.15035 26.5594 2.48365 28.8531C0.833455 31.1469 0.0166071 33.8285 0.0331093 36.8979C0.0328907 36.9475 0.0328907 36.997 0.0331093 37.0463V36.8979H10.7607V49.8038C11.7308 50.1437 12.759 50.4458 13.8453 50.71L19.3652 52.0962C21.2134 52.5417 22.7728 53.0368 24.0435 53.5814C25.3306 54.1259 26.3043 54.786 26.9643 55.5616C27.6409 56.3372 27.9792 57.2943 27.9792 58.433C27.9792 59.6541 27.6079 60.735 26.8653 61.6756C26.1227 62.6162 25.0749 63.3505 23.7217 63.8786C22.385 64.4067 20.8091 64.6707 18.9939 64.6707C17.1457 64.6707 15.4872 64.3902 14.0185 63.8291C12.6914 63.3013 11.6054 62.546 10.7607 61.5633V72.5864C13.2461 73.2995 16.0317 73.656 19.1177 73.656C23.2431 73.656 26.7663 73.0372 29.6872 71.7996C32.6245 70.5454 34.8688 68.7879 36.42 66.5272C37.9877 64.2499 38.7798 61.5601 38.7963 58.4577C38.7798 56.3454 38.392 54.4725 37.6329 52.8388C36.8903 51.2051 35.8424 49.7859 34.4892 48.5813C33.1361 47.3766 31.5354 46.3618 29.6872 45.5367C29.1997 45.319 28.6995 45.1129 28.1868 44.9182C26.7555 44.3748 25.2259 43.9209 23.5979 43.5564L19.0434 42.4673C17.9378 42.2198 16.8981 41.9227 15.9245 41.5762C14.9509 41.2131 14.0928 40.7923 13.3502 40.3138C12.6076 39.8187 12.0218 39.2329 11.5927 38.5563C11.1802 37.8797 10.9904 37.0876 11.0234 36.18C11.0234 35.0909 11.337 34.1173 11.964 33.2592C12.6076 32.4011 13.5317 31.7327 14.7364 31.2542C15.941 30.7591 17.4179 30.5116 19.1672 30.5116C21.7415 30.5116 23.7795 31.0644 25.2811 32.17ZM0.0331093 61.0053V57.0876C0.0326125 57.3606 0.0262291 57.6758 0.0191979 58.0231C0.00194844 58.8749 -0.0191994 59.9193 0.0331093 61.0053Z" fill="#E84D8A"/>
<path d="M10.7607 72.5864C9.94996 72.3538 9.1712 72.0833 8.42437 71.7748C5.40451 70.5206 3.04473 68.6642 1.34502 66.2054C0.429576 64.8591 0.12297 62.8708 0.0331157 61.0053L0.0331042 85.8935H2.76067C7.17894 85.8935 10.7607 82.3118 10.7607 77.8935L10.7607 72.5864Z" fill="#1A274A"/>
<path d="M0.0331177 57.022H10.0904C10.0904 59.0841 10.0904 59.7544 10.5284 61.2795C10.6037 61.3761 10.6811 61.4707 10.7607 61.5633V49.8038C7.91393 48.8063 5.56748 47.4829 3.72131 45.8337C1.2788 43.6517 0.0493992 40.7226 0.0331157 37.0463V57.0875C0.0331559 57.0654 0.0331575 57.0436 0.0331177 57.022Z" fill="#1A274A"/>
<path d="M10.7607 36.8978H0.0331157V37.0463C0.0493992 40.7226 1.2788 43.6517 3.72131 45.8337C5.56748 47.4829 7.91393 48.8063 10.7607 49.8038V36.8978Z" fill="#1A274A"/>
<path fill-rule="evenodd" clip-rule="evenodd" d="M10.7607 36.8978H11.0462C11.1107 37.5117 11.2929 38.0645 11.5927 38.5563C12.0218 39.2329 12.6076 39.8187 13.3502 40.3138C14.0928 40.7923 14.9509 41.2131 15.9245 41.5762C16.8981 41.9227 17.9378 42.2197 19.0434 42.4673L23.5979 43.5564C25.2259 43.9209 26.7556 44.3748 28.1868 44.9182C28.6995 45.1128 29.1997 45.319 29.6872 45.5366C31.5354 46.3617 33.1361 47.3766 34.4893 48.5812C35.8424 49.7859 36.8903 51.2051 37.6329 52.8388C38.392 54.4725 38.7798 56.3454 38.7963 58.4577C38.7798 61.5601 37.9877 64.2499 36.42 66.5272C34.8688 68.7879 32.6245 70.5454 29.6872 71.7995C26.7663 73.0372 23.2431 73.656 19.1177 73.656C16.0317 73.656 13.2461 73.2995 10.7607 72.5864C9.94996 72.3538 9.1712 72.0833 8.42437 71.7748C5.40451 70.5206 3.04473 68.6642 1.34502 66.2054C0.429576 64.8591 0.12297 62.8708 0.0331157 61.0053C-0.019193 59.9193 0.00195483 58.8749 0.0192043 58.023C0.0262355 57.6758 0.0326189 57.3606 0.0331157 57.0875L0.0331177 57.022H10.0904C10.0904 59.0841 10.0904 59.7544 10.5284 61.2795C10.6037 61.3761 10.6811 61.4707 10.7607 61.5633C11.6054 62.546 12.6914 63.3012 14.0185 63.8291C15.4872 64.3901 17.1457 64.6707 18.9939 64.6707C20.8091 64.6707 22.385 64.4066 23.7217 63.8786C25.0749 63.3505 26.1228 62.6162 26.8653 61.6756C27.6079 60.735 27.9792 59.6541 27.9792 58.4329C27.9792 57.2943 27.6409 56.3372 26.9643 55.5616C26.3043 54.786 25.3307 54.1259 24.0435 53.5813C22.7729 53.0368 21.2134 52.5417 19.3652 52.0962L13.8453 50.71C12.759 50.4458 11.7308 50.1437 10.7607 49.8038V36.8978ZM0.0331157 37.0463C0.0328971 36.9969 0.0328971 36.9475 0.0331157 36.8978V37.0463Z" fill="#1A274A"/>
<ellipse cx="33.5117" cy="5.46539" rx="5.36187" ry="5.36188" fill="#F4BE2A"/>
<path d="M31.5666 1.84251C31.8959 1.58639 32.328 1.44398 32.7577 1.44398C32.8787 1.44398 32.9745 1.50674 33.03 1.55027C33.0927 1.59941 33.1512 1.66211 33.2029 1.72481C33.2401 1.76984 33.2604 1.8264 33.2604 1.88478V3.70602H32.7148C32.6113 3.41316 32.332 3.20334 32.0037 3.20334C31.5873 3.20334 31.2497 3.54092 31.2497 3.95736C31.2497 4.37379 31.5873 4.71137 32.0037 4.71137C32.332 4.71137 32.6113 4.50155 32.7148 4.20869H33.2604V8.94149C33.2604 9.01689 33.2265 9.08827 33.1682 9.13602C32.936 9.32593 32.6252 9.48679 32.255 9.48679C31.6589 9.48679 31.215 9.18599 30.9278 8.82693C30.7073 8.55131 30.5667 8.22648 30.5164 7.94594C30.3522 7.90311 30.16 7.81559 29.9865 7.6669C29.7092 7.42919 29.4903 7.04444 29.4903 6.47074C29.4903 6.1909 29.5089 5.93805 29.5502 5.71672H31.124C31.4436 5.71672 31.7075 5.95534 31.7472 6.26414C31.457 6.36909 31.2497 6.64702 31.2497 6.97341C31.2497 7.38983 31.5873 7.72742 32.0037 7.72742C32.4201 7.72742 32.7577 7.38983 32.7577 6.97341C32.7577 6.64396 32.5464 6.36387 32.252 6.26122C32.2091 5.67575 31.7205 5.21405 31.124 5.21405H29.7121C29.7891 5.06433 29.8919 4.93748 30.0264 4.84783C30.0608 4.82491 30.0963 4.80502 30.1329 4.78805C29.9898 4.37022 30.0274 3.88035 30.1647 3.49581C30.2531 3.24841 30.3925 3.01477 30.5848 2.85888C30.7115 2.75616 30.8621 2.68771 31.027 2.67482C31.0993 2.33168 31.3027 2.04777 31.5666 1.84251ZM33.7631 7.72742H34.1401C34.7647 7.72742 35.2711 7.22103 35.2711 6.5964V5.67379C35.564 5.57029 35.7738 5.29101 35.7738 4.96271C35.7738 4.54628 35.4362 4.20869 35.0198 4.20869C34.6033 4.20869 34.2657 4.54628 34.2657 4.96271C34.2657 5.29101 34.4756 5.57029 34.7684 5.67379V6.5964C34.7684 6.94345 34.4871 7.22475 34.1401 7.22475H33.7631V1.88478C33.7631 1.8264 33.7834 1.76984 33.8206 1.72481C33.8723 1.66211 33.9308 1.59941 33.9935 1.55027C34.049 1.50674 34.1448 1.44398 34.2657 1.44398C34.6955 1.44398 35.1275 1.58639 35.4568 1.84251C35.7207 2.04777 35.9241 2.33168 35.9965 2.67482C36.1614 2.68771 36.312 2.75616 36.4387 2.85888C36.6309 3.01477 36.7704 3.24841 36.8587 3.49581C36.9961 3.88035 37.0337 4.37022 36.8905 4.78805C36.9272 4.80502 36.9627 4.82491 36.9971 4.84783C37.1355 4.94011 37.2404 5.07183 37.3181 5.22731C37.4701 5.53118 37.5331 5.95524 37.5331 6.47074C37.5331 7.04444 37.3143 7.42919 37.0369 7.6669C36.8635 7.81559 36.6713 7.90311 36.507 7.94594C36.4568 8.22648 36.3162 8.55131 36.0957 8.82693C35.8085 9.18599 35.3645 9.48679 34.7684 9.48679C34.3983 9.48679 34.0874 9.32593 33.8553 9.13602C33.7969 9.08827 33.7631 9.01689 33.7631 8.94149V7.72742ZM32.0037 3.70602C31.8649 3.70602 31.7524 3.81855 31.7524 3.95736C31.7524 4.09617 31.8649 4.20869 32.0037 4.20869C32.1425 4.20869 32.255 4.09617 32.255 3.95736C32.255 3.81855 32.1425 3.70602 32.0037 3.70602ZM32.0037 6.72207C31.8649 6.72207 31.7524 6.83462 31.7524 6.97341C31.7524 7.1122 31.8649 7.22475 32.0037 7.22475C32.1425 7.22475 32.255 7.1122 32.255 6.97341C32.255 6.83462 32.1425 6.72207 32.0037 6.72207ZM35.0198 5.21405C35.1585 5.21405 35.2711 5.10152 35.2711 4.96271C35.2711 4.8239 35.1585 4.71137 35.0198 4.71137C34.881 4.71137 34.7684 4.8239 34.7684 4.96271C34.7684 5.10152 34.881 5.21405 35.0198 5.21405Z" fill="#E84D8A"/>
</svg>
